<svg xmlns="http://www.w3.org/2000/svg" xmlns:xlink="http://www.w3.org/1999/xlink" contentStyleType="text/css" data-diagram-type="CLASS" height="675px" preserveAspectRatio="none" style="width:5088px;height:675px;background:#FFFFFF;" version="1.1" viewBox="0 0 5088 675" width="5088px" zoomAndPan="magnify"><?plantuml 1.2026.3beta6?><defs/><g><g class="title" data-source-line="1"><text fill="#000000" font-family="sans-serif" font-size="14" font-weight="700" lengthAdjust="spacing" textLength="362.3867" x="2359.3066" y="22.9951">Backend Complete Class Diagram - Ventix API</text></g><!--cluster SharedKernel--><g class="cluster" data-qualified-name="SharedKernel" data-source-line="16" id="ent0002"><path d="M1608.5,381.4669 L1716.9268,381.4669 A3.75,3.75 0 0 1 1719.4268,383.9669 L1726.4268,403.7637 L2283.5,403.7637 A2.5,2.5 0 0 1 2286,406.2637 L2286,533.9569 A2.5,2.5 0 0 1 2283.5,536.4569 L1608.5,536.4569 A2.5,2.5 0 0 1 1606,533.9569 L1606,383.9669 A2.5,2.5 0 0 1 1608.5,381.4669" fill="none" style="stroke:#000000;stroke-width:1.5;"/><line style="stroke:#000000;stroke-width:1.5;" x1="1606" x2="1726.4268" y1="403.7637" y2="403.7637"/><text fill="#000000" font-family="sans-serif" font-size="14" font-weight="700" lengthAdjust="spacing" textLength="107.4268" x="1610" y="396.462">SharedKernel</text></g><!--cluster SharedBackend--><g class="cluster" data-qualified-name="SharedBackend" data-source-line="43" id="ent0007"><path d="M8.5,43.2969 L132.6289,43.2969 A3.75,3.75 0 0 1 135.1289,45.7969 L142.1289,65.5938 L977.5,65.5938 A2.5,2.5 0 0 1 980,68.0938 L980,354.9669 A2.5,2.5 0 0 1 977.5,357.4669 L8.5,357.4669 A2.5,2.5 0 0 1 6,354.9669 L6,45.7969 A2.5,2.5 0 0 1 8.5,43.2969" fill="none" style="stroke:#000000;stroke-width:1.5;"/><line style="stroke:#000000;stroke-width:1.5;" x1="6" x2="142.1289" y1="65.5938" y2="65.5938"/><text fill="#000000" font-family="sans-serif" font-size="14" font-weight="700" lengthAdjust="spacing" textLength="123.1289" x="10" y="58.292">SharedBackend</text></g><!--cluster IAM--><g class="cluster" data-qualified-name="IAM" data-source-line="77" id="ent0013"><path d="M1006.5,206.0269 L1037.4756,206.0269 A3.75,3.75 0 0 1 1039.9756,208.5269 L1046.9756,228.3237 L1579.5,228.3237 A2.5,2.5 0 0 1 1582,230.8237 L1582,658.2569 A2.5,2.5 0 0 1 1579.5,660.7569 L1006.5,660.7569 A2.5,2.5 0 0 1 1004,658.2569 L1004,208.5269 A2.5,2.5 0 0 1 1006.5,206.0269" fill="none" style="stroke:#000000;stroke-width:1.5;"/><line style="stroke:#000000;stroke-width:1.5;" x1="1004" x2="1046.9756" y1="228.3237" y2="228.3237"/><text fill="#000000" font-family="sans-serif" font-size="14" font-weight="700" lengthAdjust="spacing" textLength="29.9756" x="1008" y="221.022">IAM</text></g><!--cluster Monitoring--><g class="cluster" data-qualified-name="Monitoring" data-source-line="108" id="ent0019"><path d="M2312.5,207.1869 L2399.8174,207.1869 A3.75,3.75 0 0 1 2402.3174,209.6869 L2409.3174,229.4837 L3048.5,229.4837 A2.5,2.5 0 0 1 3051,231.9837 L3051,650.1069 A2.5,2.5 0 0 1 3048.5,652.6069 L2312.5,652.6069 A2.5,2.5 0 0 1 2310,650.1069 L2310,209.6869 A2.5,2.5 0 0 1 2312.5,207.1869" fill="none" style="stroke:#000000;stroke-width:1.5;"/><line style="stroke:#000000;stroke-width:1.5;" x1="2310" x2="2409.3174" y1="229.4837" y2="229.4837"/><text fill="#000000" font-family="sans-serif" font-size="14" font-weight="700" lengthAdjust="spacing" textLength="86.3174" x="2314" y="222.182">Monitoring</text></g><!--cluster Device--><g class="cluster" data-qualified-name="Device" data-source-line="137" id="ent0026"><path d="M3085.5,199.1869 L3139.335,199.1869 A3.75,3.75 0 0 1 3141.835,201.6869 L3148.835,221.4837 L3754.5,221.4837 A2.5,2.5 0 0 1 3757,223.9837 L3757,658.1069 A2.5,2.5 0 0 1 3754.5,660.6069 L3085.5,660.6069 A2.5,2.5 0 0 1 3083,658.1069 L3083,201.6869 A2.5,2.5 0 0 1 3085.5,199.1869" fill="none" style="stroke:#000000;stroke-width:1.5;"/><line style="stroke:#000000;stroke-width:1.5;" x1="3083" x2="3148.835" y1="221.4837" y2="221.4837"/><text fill="#000000" font-family="sans-serif" font-size="14" font-weight="700" lengthAdjust="spacing" textLength="52.835" x="3087" y="214.182">Device</text></g><!--cluster Analytics--><g class="cluster" data-qualified-name="Analytics" data-source-line="165" id="ent0033"><path d="M4514.5,49.0569 L4587.7969,49.0569 A3.75,3.75 0 0 1 4590.2969,51.5569 L4597.2969,71.3537 L5070.5,71.3537 A2.5,2.5 0 0 1 5073,73.8537 L5073,505.9669 A2.5,2.5 0 0 1 5070.5,508.4669 L4514.5,508.4669 A2.5,2.5 0 0 1 4512,505.9669 L4512,51.5569 A2.5,2.5 0 0 1 4514.5,49.0569" fill="none" style="stroke:#000000;stroke-width:1.5;"/><line style="stroke:#000000;stroke-width:1.5;" x1="4512" x2="4597.2969" y1="71.3537" y2="71.3537"/><text fill="#000000" font-family="sans-serif" font-size="14" font-weight="700" lengthAdjust="spacing" textLength="72.2969" x="4516" y="64.052">Analytics</text></g><!--cluster Payment--><g class="cluster" data-qualified-name="Payment" data-source-line="187" id="ent0039"><path d="M3791.5,207.1869 L3862.0762,207.1869 A3.75,3.75 0 0 1 3864.5762,209.6869 L3871.5762,229.4837 L4485.5,229.4837 A2.5,2.5 0 0 1 4488,231.9837 L4488,650.1069 A2.5,2.5 0 0 1 4485.5,652.6069 L3791.5,652.6069 A2.5,2.5 0 0 1 3789,650.1069 L3789,209.6869 A2.5,2.5 0 0 1 3791.5,207.1869" fill="none" style="stroke:#000000;stroke-width:1.5;"/><line style="stroke:#000000;stroke-width:1.5;" x1="3789" x2="3871.5762" y1="229.4837" y2="229.4837"/><text fill="#000000" font-family="sans-serif" font-size="14" font-weight="700" lengthAdjust="spacing" textLength="69.5762" x="3793" y="222.182">Payment</text></g><!--class UserId--><g class="entity" data-qualified-name="SharedKernel.UserId" data-source-line="18" id="ent0003"><rect fill="#FFFFFF" height="103.9922" rx="2.5" ry="2.5" style="stroke:#444444;stroke-width:0.5;" width="168.7686" x="1621.62" y="416.4669"/><rect fill="#DCE8F8" height="39.1016" rx="2.5" ry="2.5" style="stroke:#DCE8F8;stroke-width:0.5;" width="168.7686" x="1621.62" y="416.4669"/><rect fill="#DCE8F8" height="2.5" style="stroke:#DCE8F8;stroke-width:0.5;" width="168.7686" x="1621.62" y="453.0684"/><rect fill="none" height="103.9922" rx="2.5" ry="2.5" style="stroke:#444444;stroke-width:0.5;" width="168.7686" x="1621.62" y="416.4669"/><ellipse cx="1660.2516" cy="436.0177" fill="#ADD1B2" rx="11" ry="11" style="stroke:#181818;stroke-width:1;"/><path d="M1663.2203,441.6583 Q1662.6422,441.9552 1662.0016,442.0958 Q1661.361,442.252 1660.6578,442.252 Q1658.1578,442.252 1656.8297,440.6114 Q1655.5172,438.9552 1655.5172,435.8302 Q1655.5172,432.7052 1656.8297,431.0489 Q1658.1578,429.3927 1660.6578,429.3927 Q1661.361,429.3927 1662.0016,429.5489 Q1662.6578,429.7052 1663.2203,430.002 L1663.2203,432.7208 Q1662.5953,432.1427 1662.0016,431.877 Q1661.4078,431.5958 1660.7828,431.5958 Q1659.4391,431.5958 1658.7516,432.6739 Q1658.0641,433.7364 1658.0641,435.8302 Q1658.0641,437.9239 1658.7516,439.002 Q1659.4391,440.0645 1660.7828,440.0645 Q1661.4078,440.0645 1662.0016,439.7989 Q1662.5953,439.5177 1663.2203,438.9395 L1663.2203,441.6583 Z " fill="#000000"/><text fill="#000000" font-family="sans-serif" font-size="12" font-style="italic" lengthAdjust="spacing" textLength="88.2539" x="1677.5031" y="432.6055">&#171;value object&#187;</text><text fill="#000000" font-family="sans-serif" font-size="13" font-weight="700" lengthAdjust="spacing" textLength="47.6646" x="1697.7977" y="447.5025">UserId</text><line style="stroke:#444444;stroke-width:0.5;" x1="1622.62" x2="1789.3886" y1="455.5684" y2="455.5684"/><text fill="#000000" font-family="sans-serif" font-size="14" lengthAdjust="spacing" textLength="94.2402" x="1627.62" y="472.5636">-value: String</text><line style="stroke:#444444;stroke-width:0.5;" x1="1622.62" x2="1789.3886" y1="479.8653" y2="479.8653"/><text fill="#000000" font-family="sans-serif" font-size="14" lengthAdjust="spacing" textLength="156.7686" x="1627.62" y="496.8604">+UserId(value: String)</text><text fill="#000000" font-family="sans-serif" font-size="14" lengthAdjust="spacing" textLength="136.124" x="1627.62" y="513.1573">+getValue(): String</text></g><!--class UserRole--><g class="entity" data-qualified-name="SharedKernel.UserRole" data-source-line="24" id="ent0004"><rect fill="#FFFFFF" height="80.5938" rx="2.5" ry="2.5" style="stroke:#444444;stroke-width:0.5;" width="134.8076" x="1825.6" y="428.1669"/><rect fill="#DCE8F8" height="32" rx="2.5" ry="2.5" style="stroke:#DCE8F8;stroke-width:0.5;" width="134.8076" x="1825.6" y="428.1669"/><rect fill="#DCE8F8" height="2.5" style="stroke:#DCE8F8;stroke-width:0.5;" width="134.8076" x="1825.6" y="457.6669"/><rect fill="none" height="80.5938" rx="2.5" ry="2.5" style="stroke:#444444;stroke-width:0.5;" width="134.8076" x="1825.6" y="428.1669"/><ellipse cx="1857.2821" cy="444.1669" fill="#EB937F" rx="11" ry="11" style="stroke:#181818;stroke-width:1;"/><path d="M1861.3915,450.1669 L1853.6727,450.1669 L1853.6727,437.7762 L1861.3915,437.7762 L1861.3915,439.9325 L1856.1258,439.9325 L1856.1258,442.6044 L1860.8915,442.6044 L1860.8915,444.7606 L1856.1258,444.7606 L1856.1258,448.0106 L1861.3915,448.0106 L1861.3915,450.1669 Z " fill="#000000"/><text fill="#000000" font-family="sans-serif" font-size="13" font-weight="700" lengthAdjust="spacing" textLength="65.7363" x="1874.9892" y="448.6674">UserRole</text><line style="stroke:#444444;stroke-width:0.5;" x1="1826.6" x2="1959.4076" y1="460.1669" y2="460.1669"/><text fill="#000000" font-family="sans-serif" font-size="14" lengthAdjust="spacing" textLength="88.8877" x="1831.6" y="477.162">ESTUDIANTE</text><text fill="#000000" font-family="sans-serif" font-size="14" lengthAdjust="spacing" textLength="122.8076" x="1831.6" y="493.4589">DUENO_DE_CASA</text><line style="stroke:#444444;stroke-width:0.5;" x1="1826.6" x2="1959.4076" y1="500.7606" y2="500.7606"/></g><!--class NodeId--><g class="entity" data-qualified-name="SharedKernel.NodeId" data-source-line="29" id="ent0005"><rect fill="#FFFFFF" height="71.3984" rx="2.5" ry="2.5" style="stroke:#444444;stroke-width:0.5;" width="116.2539" x="1995.87" y="432.7669"/><rect fill="#DCE8F8" height="39.1016" rx="2.5" ry="2.5" style="stroke:#DCE8F8;stroke-width:0.5;" width="116.2539" x="1995.87" y="432.7669"/><rect fill="#DCE8F8" height="2.5" style="stroke:#DCE8F8;stroke-width:0.5;" width="116.2539" x="1995.87" y="469.3684"/><rect fill="none" height="71.3984" rx="2.5" ry="2.5" style="stroke:#444444;stroke-width:0.5;" width="116.2539" x="1995.87" y="432.7669"/><ellipse cx="2010.87" cy="452.3177" fill="#ADD1B2" rx="11" ry="11" style="stroke:#181818;stroke-width:1;"/><path d="M2013.8388,457.9583 Q2013.2606,458.2552 2012.62,458.3958 Q2011.9794,458.552 2011.2763,458.552 Q2008.7763,458.552 2007.4481,456.9114 Q2006.1356,455.2552 2006.1356,452.1302 Q2006.1356,449.0052 2007.4481,447.3489 Q2008.7763,445.6927 2011.2763,445.6927 Q2011.9794,445.6927 2012.62,445.8489 Q2013.2763,446.0052 2013.8388,446.302 L2013.8388,449.0208 Q2013.2138,448.4427 2012.62,448.177 Q2012.0263,447.8958 2011.4013,447.8958 Q2010.0575,447.8958 2009.37,448.9739 Q2008.6825,450.0364 2008.6825,452.1302 Q2008.6825,454.2239 2009.37,455.302 Q2010.0575,456.3645 2011.4013,456.3645 Q2012.0263,456.3645 2012.62,456.0989 Q2013.2138,455.8177 2013.8388,455.2395 L2013.8388,457.9583 Z " fill="#000000"/><text fill="#000000" font-family="sans-serif" font-size="12" font-style="italic" lengthAdjust="spacing" textLength="88.2539" x="2022.87" y="448.9055">&#171;value object&#187;</text><text fill="#000000" font-family="sans-serif" font-size="13" font-weight="700" lengthAdjust="spacing" textLength="52.0762" x="2040.9589" y="463.8025">NodeId</text><line style="stroke:#444444;stroke-width:0.5;" x1="1996.87" x2="2111.1239" y1="471.8684" y2="471.8684"/><text fill="#000000" font-family="sans-serif" font-size="14" lengthAdjust="spacing" textLength="94.2402" x="2001.87" y="488.8636">-value: String</text><line style="stroke:#444444;stroke-width:0.5;" x1="1996.87" x2="2111.1239" y1="496.1653" y2="496.1653"/></g><!--class InstitutionId--><g class="entity" data-qualified-name="SharedKernel.InstitutionId" data-source-line="33" id="ent0006"><rect fill="#FFFFFF" height="71.3984" rx="2.5" ry="2.5" style="stroke:#444444;stroke-width:0.5;" width="122.9683" x="2147.52" y="432.7669"/><rect fill="#DCE8F8" height="39.1016" rx="2.5" ry="2.5" style="stroke:#DCE8F8;stroke-width:0.5;" width="122.9683" x="2147.52" y="432.7669"/><rect fill="#DCE8F8" height="2.5" style="stroke:#DCE8F8;stroke-width:0.5;" width="122.9683" x="2147.52" y="469.3684"/><rect fill="none" height="71.3984" rx="2.5" ry="2.5" style="stroke:#444444;stroke-width:0.5;" width="122.9683" x="2147.52" y="432.7669"/><ellipse cx="2162.52" cy="452.3177" fill="#ADD1B2" rx="11" ry="11" style="stroke:#181818;stroke-width:1;"/><path d="M2165.4888,457.9583 Q2164.9106,458.2552 2164.27,458.3958 Q2163.6294,458.552 2162.9263,458.552 Q2160.4263,458.552 2159.0981,456.9114 Q2157.7856,455.2552 2157.7856,452.1302 Q2157.7856,449.0052 2159.0981,447.3489 Q2160.4263,445.6927 2162.9263,445.6927 Q2163.6294,445.6927 2164.27,445.8489 Q2164.9263,446.0052 2165.4888,446.302 L2165.4888,449.0208 Q2164.8638,448.4427 2164.27,448.177 Q2163.6763,447.8958 2163.0513,447.8958 Q2161.7075,447.8958 2161.02,448.9739 Q2160.3325,450.0364 2160.3325,452.1302 Q2160.3325,454.2239 2161.02,455.302 Q2161.7075,456.3645 2163.0513,456.3645 Q2163.6763,456.3645 2164.27,456.0989 Q2164.8638,455.8177 2165.4888,455.2395 L2165.4888,457.9583 Z " fill="#000000"/><text fill="#000000" font-family="sans-serif" font-size="12" font-style="italic" lengthAdjust="spacing" textLength="88.2539" x="2177.8772" y="448.9055">&#171;value object&#187;</text><text fill="#000000" font-family="sans-serif" font-size="13" font-weight="700" lengthAdjust="spacing" textLength="90.9683" x="2176.52" y="463.8025">InstitutionId</text><line style="stroke:#444444;stroke-width:0.5;" x1="2148.52" x2="2269.4883" y1="471.8684" y2="471.8684"/><text fill="#000000" font-family="sans-serif" font-size="14" lengthAdjust="spacing" textLength="94.2402" x="2153.52" y="488.8636">-value: String</text><line style="stroke:#444444;stroke-width:0.5;" x1="2148.52" x2="2269.4883" y1="496.1653" y2="496.1653"/></g><!--class AuditableEntity--><g class="entity" data-qualified-name="SharedBackend.AuditableEntity" data-source-line="45" id="ent0008"><rect fill="#FFFFFF" height="80.5938" rx="2.5" ry="2.5" style="stroke:#444444;stroke-width:0.5;" width="206.2842" x="562.86" y="86.4469"/><rect fill="#DCE8F8" height="32" rx="2.5" ry="2.5" style="stroke:#DCE8F8;stroke-width:0.5;" width="206.2842" x="562.86" y="86.4469"/><rect fill="#DCE8F8" height="2.5" style="stroke:#DCE8F8;stroke-width:0.5;" width="206.2842" x="562.86" y="115.9469"/><rect fill="none" height="80.5938" rx="2.5" ry="2.5" style="stroke:#444444;stroke-width:0.5;" width="206.2842" x="562.86" y="86.4469"/><ellipse cx="604.9261" cy="102.4469" fill="#A9DCDF" rx="11" ry="11" style="stroke:#181818;stroke-width:1;"/><path d="M605.0355,97.7906 L603.8793,102.8687 L606.2074,102.8687 L605.0355,97.7906 Z M603.5511,95.5562 L606.5355,95.5562 L609.8949,107.9469 L607.4418,107.9469 L606.6761,104.8844 L603.3949,104.8844 L602.6449,107.9469 L600.2074,107.9469 L603.5511,95.5562 Z " fill="#000000"/><text fill="#000000" font-family="sans-serif" font-size="13" font-style="italic" font-weight="700" lengthAdjust="spacing" textLength="114.1372" x="624.9408" y="106.9474">AuditableEntity</text><line style="stroke:#444444;stroke-width:0.5;" x1="563.86" x2="768.1442" y1="118.4469" y2="118.4469"/><text fill="#000000" font-family="sans-serif" font-size="14" lengthAdjust="spacing" textLength="69.0771" x="568.86" y="135.442">#id: UUID</text><text fill="#000000" font-family="sans-serif" font-size="14" lengthAdjust="spacing" textLength="194.2842" x="568.86" y="151.7389">#createdAt: LocalDateTime</text><line style="stroke:#444444;stroke-width:0.5;" x1="563.86" x2="768.1442" y1="159.0406" y2="159.0406"/></g><!--class ApiResponse~T~--><g class="entity" data-qualified-name="SharedBackend.ApiResponse.T." data-source-line="50" id="ent0009"><rect fill="#FFFFFF" height="96.8906" rx="2.5" ry="2.5" style="stroke:#444444;stroke-width:0.5;" width="157.0869" x="22.46" y="78.2969"/><rect fill="#DCE8F8" height="32" rx="2.5" ry="2.5" style="stroke:#DCE8F8;stroke-width:0.5;" width="157.0869" x="22.46" y="78.2969"/><rect fill="#DCE8F8" height="2.5" style="stroke:#DCE8F8;stroke-width:0.5;" width="157.0869" x="22.46" y="107.7969"/><rect fill="none" height="96.8906" rx="2.5" ry="2.5" style="stroke:#444444;stroke-width:0.5;" width="157.0869" x="22.46" y="78.2969"/><ellipse cx="37.46" cy="94.2969" fill="#ADD1B2" rx="11" ry="11" style="stroke:#181818;stroke-width:1;"/><path d="M40.4288,99.9375 Q39.8506,100.2344 39.21,100.375 Q38.5694,100.5313 37.8663,100.5313 Q35.3663,100.5313 34.0381,98.8906 Q32.7256,97.2344 32.7256,94.1094 Q32.7256,90.9844 34.0381,89.3281 Q35.3663,87.6719 37.8663,87.6719 Q38.5694,87.6719 39.21,87.8281 Q39.8663,87.9844 40.4288,88.2813 L40.4288,91 Q39.8038,90.4219 39.21,90.1563 Q38.6163,89.875 37.9913,89.875 Q36.6475,89.875 35.96,90.9531 Q35.2725,92.0156 35.2725,94.1094 Q35.2725,96.2031 35.96,97.2813 Q36.6475,98.3438 37.9913,98.3438 Q38.6163,98.3438 39.21,98.0781 Q39.8038,97.7969 40.4288,97.2188 L40.4288,99.9375 Z " fill="#000000"/><text fill="#000000" font-family="sans-serif" font-size="13" font-weight="700" lengthAdjust="spacing" textLength="125.0869" x="51.46" y="98.7974">ApiResponse~T~</text><line style="stroke:#444444;stroke-width:0.5;" x1="23.46" x2="178.5469" y1="110.2969" y2="110.2969"/><text fill="#000000" font-family="sans-serif" font-size="14" lengthAdjust="spacing" textLength="131.6328" x="28.46" y="127.292">+success: boolean</text><text fill="#000000" font-family="sans-serif" font-size="14" lengthAdjust="spacing" textLength="125.5967" x="28.46" y="143.5889">+message: String</text><text fill="#000000" font-family="sans-serif" font-size="14" lengthAdjust="spacing" textLength="60.9834" x="28.46" y="159.8857">+data: T</text><line style="stroke:#444444;stroke-width:0.5;" x1="23.46" x2="178.5469" y1="167.1875" y2="167.1875"/></g><!--class JwtUtil--><g class="entity" data-qualified-name="SharedBackend.JwtUtil" data-source-line="56" id="ent0010"><rect fill="#FFFFFF" height="64.2969" rx="2.5" ry="2.5" style="stroke:#444444;stroke-width:0.5;" width="312.9248" x="214.54" y="94.5969"/><rect fill="#DCE8F8" height="32" rx="2.5" ry="2.5" style="stroke:#DCE8F8;stroke-width:0.5;" width="312.9248" x="214.54" y="94.5969"/><rect fill="#DCE8F8" height="2.5" style="stroke:#DCE8F8;stroke-width:0.5;" width="312.9248" x="214.54" y="124.0969"/><rect fill="none" height="64.2969" rx="2.5" ry="2.5" style="stroke:#444444;stroke-width:0.5;" width="312.9248" x="214.54" y="94.5969"/><ellipse cx="342.3806" cy="110.5969" fill="#ADD1B2" rx="11" ry="11" style="stroke:#181818;stroke-width:1;"/><path d="M345.3493,116.2375 Q344.7712,116.5344 344.1306,116.675 Q343.49,116.8312 342.7868,116.8312 Q340.2868,116.8312 338.9587,115.1906 Q337.6462,113.5344 337.6462,110.4094 Q337.6462,107.2844 338.9587,105.6281 Q340.2868,103.9719 342.7868,103.9719 Q343.49,103.9719 344.1306,104.1281 Q344.7868,104.2844 345.3493,104.5812 L345.3493,107.3 Q344.7243,106.7219 344.1306,106.4562 Q343.5368,106.175 342.9118,106.175 Q341.5681,106.175 340.8806,107.2531 Q340.1931,108.3156 340.1931,110.4094 Q340.1931,112.5031 340.8806,113.5812 Q341.5681,114.6437 342.9118,114.6437 Q343.5368,114.6437 344.1306,114.3781 Q344.7243,114.0969 345.3493,113.5187 L345.3493,116.2375 Z " fill="#000000"/><text fill="#000000" font-family="sans-serif" font-size="13" font-weight="700" lengthAdjust="spacing" textLength="48.7437" x="362.8806" y="115.0974">JwtUtil</text><line style="stroke:#444444;stroke-width:0.5;" x1="215.54" x2="526.4648" y1="126.5969" y2="126.5969"/><line style="stroke:#444444;stroke-width:0.5;" x1="215.54" x2="526.4648" y1="134.5969" y2="134.5969"/><text fill="#000000" font-family="sans-serif" font-size="14" lengthAdjust="spacing" textLength="300.9248" x="220.54" y="151.592">+generateToken(username: String): String</text></g><!--class Money--><g class="entity" data-qualified-name="SharedBackend.Money" data-source-line="60" id="ent0011"><rect fill="#FFFFFF" height="80.5938" rx="2.5" ry="2.5" style="stroke:#444444;stroke-width:0.5;" width="159.7041" x="804.15" y="86.4469"/><rect fill="#DCE8F8" height="32" rx="2.5" ry="2.5" style="stroke:#DCE8F8;stroke-width:0.5;" width="159.7041" x="804.15" y="86.4469"/><rect fill="#DCE8F8" height="2.5" style="stroke:#DCE8F8;stroke-width:0.5;" width="159.7041" x="804.15" y="115.9469"/><rect fill="none" height="80.5938" rx="2.5" ry="2.5" style="stroke:#444444;stroke-width:0.5;" width="159.7041" x="804.15" y="86.4469"/><ellipse cx="855.5453" cy="102.4469" fill="#ADD1B2" rx="11" ry="11" style="stroke:#181818;stroke-width:1;"/><path d="M858.514,108.0875 Q857.9359,108.3844 857.2953,108.525 Q856.6546,108.6812 855.9515,108.6812 Q853.4515,108.6812 852.1234,107.0406 Q850.8109,105.3844 850.8109,102.2594 Q850.8109,99.1344 852.1234,97.4781 Q853.4515,95.8219 855.9515,95.8219 Q856.6546,95.8219 857.2953,95.9781 Q857.9515,96.1344 858.514,96.4312 L858.514,99.15 Q857.889,98.5719 857.2953,98.3062 Q856.7015,98.025 856.0765,98.025 Q854.7328,98.025 854.0453,99.1031 Q853.3578,100.1656 853.3578,102.2594 Q853.3578,104.3531 854.0453,105.4312 Q854.7328,106.4937 856.0765,106.4937 Q856.7015,106.4937 857.2953,106.2281 Q857.889,105.9469 858.514,105.3687 L858.514,108.0875 Z " fill="#000000"/><text fill="#000000" font-family="sans-serif" font-size="13" font-weight="700" lengthAdjust="spacing" textLength="48.4136" x="876.0453" y="106.9474">Money</text><line style="stroke:#444444;stroke-width:0.5;" x1="805.15" x2="962.8541" y1="118.4469" y2="118.4469"/><text fill="#000000" font-family="sans-serif" font-size="14" lengthAdjust="spacing" textLength="147.7041" x="810.15" y="135.442">-amount: BigDecimal</text><text fill="#000000" font-family="sans-serif" font-size="14" lengthAdjust="spacing" textLength="117.5508" x="810.15" y="151.7389">-currency: String</text><line style="stroke:#444444;stroke-width:0.5;" x1="805.15" x2="962.8541" y1="159.0406" y2="159.0406"/></g><!--class AirReading--><g class="entity" data-qualified-name="SharedBackend.AirReading" data-source-line="65" id="ent0012"><rect fill="#FFFFFF" height="96.8906" rx="2.5" ry="2.5" style="stroke:#444444;stroke-width:0.5;" width="164.1338" x="21.93" y="244.5769"/><rect fill="#DCE8F8" height="32" rx="2.5" ry="2.5" style="stroke:#DCE8F8;stroke-width:0.5;" width="164.1338" x="21.93" y="244.5769"/><rect fill="#DCE8F8" height="2.5" style="stroke:#DCE8F8;stroke-width:0.5;" width="164.1338" x="21.93" y="274.0769"/><rect fill="none" height="96.8906" rx="2.5" ry="2.5" style="stroke:#444444;stroke-width:0.5;" width="164.1338" x="21.93" y="244.5769"/><ellipse cx="60.0077" cy="260.5769" fill="#ADD1B2" rx="11" ry="11" style="stroke:#181818;stroke-width:1;"/><path d="M62.9764,266.2175 Q62.3983,266.5144 61.7577,266.655 Q61.117,266.8113 60.4139,266.8113 Q57.9139,266.8113 56.5858,265.1706 Q55.2733,263.5144 55.2733,260.3894 Q55.2733,257.2644 56.5858,255.6081 Q57.9139,253.9519 60.4139,253.9519 Q61.117,253.9519 61.7577,254.1081 Q62.4139,254.2644 62.9764,254.5612 L62.9764,257.28 Q62.3514,256.7019 61.7577,256.4363 Q61.1639,256.155 60.5389,256.155 Q59.1952,256.155 58.5077,257.2331 Q57.8202,258.2956 57.8202,260.3894 Q57.8202,262.4831 58.5077,263.5613 Q59.1952,264.6238 60.5389,264.6238 Q61.1639,264.6238 61.7577,264.3581 Q62.3514,264.0769 62.9764,263.4988 L62.9764,266.2175 Z " fill="#000000"/><text fill="#000000" font-family="sans-serif" font-size="13" font-weight="700" lengthAdjust="spacing" textLength="80.8501" x="79.136" y="265.0774">AirReading</text><line style="stroke:#444444;stroke-width:0.5;" x1="22.93" x2="185.0638" y1="276.5769" y2="276.5769"/><text fill="#000000" font-family="sans-serif" font-size="14" lengthAdjust="spacing" textLength="88.9971" x="27.93" y="293.572">-co2: Double</text><text fill="#000000" font-family="sans-serif" font-size="14" lengthAdjust="spacing" textLength="152.1338" x="27.93" y="309.8689">-temperature: Double</text><text fill="#000000" font-family="sans-serif" font-size="14" lengthAdjust="spacing" textLength="125.6514" x="27.93" y="326.1657">-humidity: Double</text><line style="stroke:#444444;stroke-width:0.5;" x1="22.93" x2="185.0638" y1="333.4675" y2="333.4675"/></g><!--class User--><g class="entity" data-qualified-name="IAM.User" data-source-line="79" id="ent0014"><rect fill="#FFFFFF" height="103.9922" rx="2.5" ry="2.5" style="stroke:#444444;stroke-width:0.5;" width="115.749" x="1289.13" y="241.0269"/><rect fill="#DCE8F8" height="39.1016" rx="2.5" ry="2.5" style="stroke:#DCE8F8;stroke-width:0.5;" width="115.749" x="1289.13" y="241.0269"/><rect fill="#DCE8F8" height="2.5" style="stroke:#DCE8F8;stroke-width:0.5;" width="115.749" x="1289.13" y="277.6284"/><rect fill="none" height="103.9922" rx="2.5" ry="2.5" style="stroke:#444444;stroke-width:0.5;" width="115.749" x="1289.13" y="241.0269"/><ellipse cx="1315.8445" cy="260.5777" fill="#ADD1B2" rx="11" ry="11" style="stroke:#181818;stroke-width:1;"/><path d="M1318.8133,266.2183 Q1318.2351,266.5152 1317.5945,266.6558 Q1316.9539,266.812 1316.2508,266.812 Q1313.7508,266.812 1312.4226,265.1714 Q1311.1101,263.5152 1311.1101,260.3902 Q1311.1101,257.2652 1312.4226,255.6089 Q1313.7508,253.9527 1316.2508,253.9527 Q1316.9539,253.9527 1317.5945,254.1089 Q1318.2508,254.2652 1318.8133,254.562 L1318.8133,257.2808 Q1318.1883,256.7027 1317.5945,256.437 Q1317.0008,256.1558 1316.3758,256.1558 Q1315.032,256.1558 1314.3445,257.2339 Q1313.657,258.2964 1313.657,260.3902 Q1313.657,262.4839 1314.3445,263.562 Q1315.032,264.6245 1316.3758,264.6245 Q1317.0008,264.6245 1317.5945,264.3589 Q1318.1883,264.0777 1318.8133,263.4995 L1318.8133,266.2183 Z " fill="#000000"/><text fill="#000000" font-family="sans-serif" font-size="12" font-style="italic" lengthAdjust="spacing" textLength="61.7168" x="1330.4477" y="257.1655">&#171;@Entity&#187;</text><text fill="#000000" font-family="sans-serif" font-size="13" font-weight="700" lengthAdjust="spacing" textLength="33.522" x="1344.5451" y="272.0625">User</text><line style="stroke:#444444;stroke-width:0.5;" x1="1290.13" x2="1403.879" y1="280.1284" y2="280.1284"/><text fill="#000000" font-family="sans-serif" font-size="14" lengthAdjust="spacing" textLength="102.6963" x="1295.13" y="297.1236">-userId: UserId</text><text fill="#000000" font-family="sans-serif" font-size="14" lengthAdjust="spacing" textLength="94.6094" x="1295.13" y="313.4204">-email: String</text><text fill="#000000" font-family="sans-serif" font-size="14" lengthAdjust="spacing" textLength="103.749" x="1295.13" y="329.7173">-role: UserRole</text><line style="stroke:#444444;stroke-width:0.5;" x1="1290.13" x2="1403.879" y1="337.0191" y2="337.0191"/></g><!--class Session--><g class="entity" data-qualified-name="IAM.Session" data-source-line="85" id="ent0015"><rect fill="#FFFFFF" height="87.6953" rx="2.5" ry="2.5" style="stroke:#444444;stroke-width:0.5;" width="126.4609" x="1439.77" y="249.1769"/><rect fill="#DCE8F8" height="39.1016" rx="2.5" ry="2.5" style="stroke:#DCE8F8;stroke-width:0.5;" width="126.4609" x="1439.77" y="249.1769"/><rect fill="#DCE8F8" height="2.5" style="stroke:#DCE8F8;stroke-width:0.5;" width="126.4609" x="1439.77" y="285.7784"/><rect fill="none" height="87.6953" rx="2.5" ry="2.5" style="stroke:#444444;stroke-width:0.5;" width="126.4609" x="1439.77" y="249.1769"/><ellipse cx="1471.3049" cy="268.7277" fill="#ADD1B2" rx="11" ry="11" style="stroke:#181818;stroke-width:1;"/><path d="M1474.2736,274.3683 Q1473.6955,274.6652 1473.0549,274.8058 Q1472.4142,274.962 1471.7111,274.962 Q1469.2111,274.962 1467.883,273.3214 Q1466.5705,271.6652 1466.5705,268.5402 Q1466.5705,265.4152 1467.883,263.7589 Q1469.2111,262.1027 1471.7111,262.1027 Q1472.4142,262.1027 1473.0549,262.2589 Q1473.7111,262.4152 1474.2736,262.712 L1474.2736,265.4308 Q1473.6486,264.8527 1473.0549,264.587 Q1472.4611,264.3058 1471.8361,264.3058 Q1470.4924,264.3058 1469.8049,265.3839 Q1469.1174,266.4464 1469.1174,268.5402 Q1469.1174,270.6339 1469.8049,271.712 Q1470.4924,272.7745 1471.8361,272.7745 Q1472.4611,272.7745 1473.0549,272.5089 Q1473.6486,272.2277 1474.2736,271.6495 L1474.2736,274.3683 Z " fill="#000000"/><text fill="#000000" font-family="sans-serif" font-size="12" font-style="italic" lengthAdjust="spacing" textLength="61.7168" x="1486.9793" y="265.3155">&#171;@Entity&#187;</text><text fill="#000000" font-family="sans-serif" font-size="13" font-weight="700" lengthAdjust="spacing" textLength="56.2974" x="1489.689" y="280.2125">Session</text><line style="stroke:#444444;stroke-width:0.5;" x1="1440.77" x2="1565.2309" y1="288.2784" y2="288.2784"/><text fill="#000000" font-family="sans-serif" font-size="14" lengthAdjust="spacing" textLength="114.4609" x="1445.77" y="305.2736">-sessionId: UUID</text><text fill="#000000" font-family="sans-serif" font-size="14" lengthAdjust="spacing" textLength="102.6963" x="1445.77" y="321.5704">-userId: UserId</text><line style="stroke:#444444;stroke-width:0.5;" x1="1440.77" x2="1565.2309" y1="328.8722" y2="328.8722"/></g><!--class AuthApplicationService--><g class="entity" data-qualified-name="IAM.AuthApplicationService" data-source-line="90" id="ent0016"><rect fill="#FFFFFF" height="64.2969" rx="2.5" ry="2.5" style="stroke:#444444;stroke-width:0.5;" width="203.7485" x="1038.13" y="436.3169"/><rect fill="#DCE8F8" height="32" rx="2.5" ry="2.5" style="stroke:#DCE8F8;stroke-width:0.5;" width="203.7485" x="1038.13" y="436.3169"/><rect fill="#DCE8F8" height="2.5" style="stroke:#DCE8F8;stroke-width:0.5;" width="203.7485" x="1038.13" y="465.8169"/><rect fill="none" height="64.2969" rx="2.5" ry="2.5" style="stroke:#444444;stroke-width:0.5;" width="203.7485" x="1038.13" y="436.3169"/><ellipse cx="1053.13" cy="452.3169" fill="#ADD1B2" rx="11" ry="11" style="stroke:#181818;stroke-width:1;"/><path d="M1056.0988,457.9575 Q1055.5206,458.2544 1054.88,458.395 Q1054.2394,458.5513 1053.5363,458.5513 Q1051.0363,458.5513 1049.7081,456.9106 Q1048.3956,455.2544 1048.3956,452.1294 Q1048.3956,449.0044 1049.7081,447.3481 Q1051.0363,445.6919 1053.5363,445.6919 Q1054.2394,445.6919 1054.88,445.8481 Q1055.5363,446.0044 1056.0988,446.3013 L1056.0988,449.02 Q1055.4738,448.4419 1054.88,448.1763 Q1054.2863,447.895 1053.6613,447.895 Q1052.3175,447.895 1051.63,448.9731 Q1050.9425,450.0356 1050.9425,452.1294 Q1050.9425,454.2231 1051.63,455.3013 Q1052.3175,456.3638 1053.6613,456.3638 Q1054.2863,456.3638 1054.88,456.0981 Q1055.4738,455.8169 1056.0988,455.2388 L1056.0988,457.9575 Z " fill="#000000"/><text fill="#000000" font-family="sans-serif" font-size="13" font-weight="700" lengthAdjust="spacing" textLength="171.7485" x="1067.13" y="456.8174">AuthApplicationService</text><line style="stroke:#444444;stroke-width:0.5;" x1="1039.13" x2="1240.8785" y1="468.3169" y2="468.3169"/><line style="stroke:#444444;stroke-width:0.5;" x1="1039.13" x2="1240.8785" y1="476.3169" y2="476.3169"/><text fill="#000000" font-family="sans-serif" font-size="14" lengthAdjust="spacing" textLength="107.707" x="1044.13" y="493.312">+login(): String</text></g><!--class UserRepository--><g class="entity" data-qualified-name="IAM.UserRepository" data-source-line="94" id="ent0017"><rect fill="#FFFFFF" height="64.2969" rx="2.5" ry="2.5" style="stroke:#444444;stroke-width:0.5;" width="248.5986" x="1019.7" y="580.4569"/><rect fill="#DCE8F8" height="32" rx="2.5" ry="2.5" style="stroke:#DCE8F8;stroke-width:0.5;" width="248.5986" x="1019.7" y="580.4569"/><rect fill="#DCE8F8" height="2.5" style="stroke:#DCE8F8;stroke-width:0.5;" width="248.5986" x="1019.7" y="609.9569"/><rect fill="none" height="64.2969" rx="2.5" ry="2.5" style="stroke:#444444;stroke-width:0.5;" width="248.5986" x="1019.7" y="580.4569"/><ellipse cx="1083.344" cy="596.4569" fill="#B4A7E5" rx="11" ry="11" style="stroke:#181818;stroke-width:1;"/><path d="M1079.2659,592.2225 L1079.2659,590.0663 L1086.6565,590.0663 L1086.6565,592.2225 L1084.1878,592.2225 L1084.1878,600.3006 L1086.6565,600.3006 L1086.6565,602.4569 L1079.2659,602.4569 L1079.2659,600.3006 L1081.7347,600.3006 L1081.7347,592.2225 L1079.2659,592.2225 Z " fill="#000000"/><text fill="#000000" font-family="sans-serif" font-size="13" font-style="italic" font-weight="700" lengthAdjust="spacing" textLength="112.8105" x="1103.844" y="600.9574">UserRepository</text><line style="stroke:#444444;stroke-width:0.5;" x1="1020.7" x2="1267.2986" y1="612.4569" y2="612.4569"/><line style="stroke:#444444;stroke-width:0.5;" x1="1020.7" x2="1267.2986" y1="620.4569" y2="620.4569"/><text fill="#000000" font-family="sans-serif" font-size="14" lengthAdjust="spacing" textLength="236.5986" x="1025.7" y="637.452">+findByEmail(email: String): User</text></g><!--class AuthController--><g class="entity" data-qualified-name="IAM.AuthController" data-source-line="98" id="ent0018"><rect fill="#FFFFFF" height="64.2969" rx="2.5" ry="2.5" style="stroke:#444444;stroke-width:0.5;" width="233.3887" x="1020.31" y="260.8769"/><rect fill="#DCE8F8" height="32" rx="2.5" ry="2.5" style="stroke:#DCE8F8;stroke-width:0.5;" width="233.3887" x="1020.31" y="260.8769"/><rect fill="#DCE8F8" height="2.5" style="stroke:#DCE8F8;stroke-width:0.5;" width="233.3887" x="1020.31" y="290.3769"/><rect fill="none" height="64.2969" rx="2.5" ry="2.5" style="stroke:#444444;stroke-width:0.5;" width="233.3887" x="1020.31" y="260.8769"/><ellipse cx="1078.6501" cy="276.8769" fill="#ADD1B2" rx="11" ry="11" style="stroke:#181818;stroke-width:1;"/><path d="M1081.6188,282.5175 Q1081.0407,282.8144 1080.4001,282.955 Q1079.7595,283.1112 1079.0563,283.1112 Q1076.5563,283.1112 1075.2282,281.4706 Q1073.9157,279.8144 1073.9157,276.6894 Q1073.9157,273.5644 1075.2282,271.9081 Q1076.5563,270.2519 1079.0563,270.2519 Q1079.7595,270.2519 1080.4001,270.4081 Q1081.0563,270.5644 1081.6188,270.8612 L1081.6188,273.58 Q1080.9938,273.0019 1080.4001,272.7362 Q1079.8063,272.455 1079.1813,272.455 Q1077.8376,272.455 1077.1501,273.5331 Q1076.4626,274.5956 1076.4626,276.6894 Q1076.4626,278.7831 1077.1501,279.8612 Q1077.8376,280.9237 1079.1813,280.9237 Q1079.8063,280.9237 1080.4001,280.6581 Q1080.9938,280.3769 1081.6188,279.7987 L1081.6188,282.5175 Z " fill="#000000"/><text fill="#000000" font-family="sans-serif" font-size="13" font-weight="700" lengthAdjust="spacing" textLength="108.2085" x="1099.1501" y="281.3774">AuthController</text><line style="stroke:#444444;stroke-width:0.5;" x1="1021.31" x2="1252.6987" y1="292.8769" y2="292.8769"/><line style="stroke:#444444;stroke-width:0.5;" x1="1021.31" x2="1252.6987" y1="300.8769" y2="300.8769"/><text fill="#000000" font-family="sans-serif" font-size="14" lengthAdjust="spacing" textLength="221.3887" x="1026.31" y="317.872">+login(): ApiResponse~String~</text></g><!--class SensorNode--><g class="entity" data-qualified-name="Monitoring.SensorNode" data-source-line="110" id="ent0020"><rect fill="#FFFFFF" height="101.6641" rx="2.5" ry="2.5" style="stroke:#444444;stroke-width:0.5;" width="150.3867" x="2325.81" y="242.1869"/><rect fill="#DCE8F8" height="53.0703" rx="2.5" ry="2.5" style="stroke:#DCE8F8;stroke-width:0.5;" width="150.3867" x="2325.81" y="242.1869"/><rect fill="#DCE8F8" height="2.5" style="stroke:#DCE8F8;stroke-width:0.5;" width="150.3867" x="2325.81" y="292.7572"/><rect fill="none" height="101.6641" rx="2.5" ry="2.5" style="stroke:#444444;stroke-width:0.5;" width="150.3867" x="2325.81" y="242.1869"/><ellipse cx="2343.1312" cy="268.722" fill="#ADD1B2" rx="11" ry="11" style="stroke:#181818;stroke-width:1;"/><path d="M2346.0999,274.3627 Q2345.5218,274.6595 2344.8812,274.8002 Q2344.2406,274.9564 2343.5374,274.9564 Q2341.0374,274.9564 2339.7093,273.3158 Q2338.3968,271.6595 2338.3968,268.5345 Q2338.3968,265.4095 2339.7093,263.7533 Q2341.0374,262.097 2343.5374,262.097 Q2344.2406,262.097 2344.8812,262.2533 Q2345.5374,262.4095 2346.0999,262.7064 L2346.0999,265.4252 Q2345.4749,264.847 2344.8812,264.5814 Q2344.2874,264.3002 2343.6624,264.3002 Q2342.3187,264.3002 2341.6312,265.3783 Q2340.9437,266.4408 2340.9437,268.5345 Q2340.9437,270.6283 2341.6312,271.7064 Q2342.3187,272.7689 2343.6624,272.7689 Q2344.2874,272.7689 2344.8812,272.5033 Q2345.4749,272.222 2346.0999,271.6439 L2346.0999,274.3627 Z " fill="#000000"/><text fill="#000000" font-family="sans-serif" font-size="12" font-style="italic" lengthAdjust="spacing" textLength="61.7168" x="2383.4029" y="258.3255">&#171;@Entity&#187;</text><text fill="#000000" font-family="sans-serif" font-size="12" font-style="italic" lengthAdjust="spacing" textLength="117.2285" x="2355.647" y="272.2943">&#171;@AggregateRoot&#187;</text><text fill="#000000" font-family="sans-serif" font-size="13" font-weight="700" lengthAdjust="spacing" textLength="88.4482" x="2370.0371" y="287.1913">SensorNode</text><line style="stroke:#444444;stroke-width:0.5;" x1="2326.81" x2="2475.1967" y1="295.2572" y2="295.2572"/><text fill="#000000" font-family="sans-serif" font-size="14" lengthAdjust="spacing" textLength="111.7266" x="2331.81" y="312.2523">-nodeId: NodeId</text><text fill="#000000" font-family="sans-serif" font-size="14" lengthAdjust="spacing" textLength="138.3867" x="2331.81" y="328.5492">-status: NodeStatus</text><line style="stroke:#444444;stroke-width:0.5;" x1="2326.81" x2="2475.1967" y1="335.8509" y2="335.8509"/></g><!--class AutomationRule--><g class="entity" data-qualified-name="Monitoring.AutomationRule" data-source-line="115" id="ent0021"><rect fill="#FFFFFF" height="64.2969" rx="2.5" ry="2.5" style="stroke:#444444;stroke-width:0.5;" width="150.1743" x="2510.91" y="260.8769"/><rect fill="#DCE8F8" height="32" rx="2.5" ry="2.5" style="stroke:#DCE8F8;stroke-width:0.5;" width="150.1743" x="2510.91" y="260.8769"/><rect fill="#DCE8F8" height="2.5" style="stroke:#DCE8F8;stroke-width:0.5;" width="150.1743" x="2510.91" y="290.3769"/><rect fill="none" height="64.2969" rx="2.5" ry="2.5" style="stroke:#444444;stroke-width:0.5;" width="150.1743" x="2510.91" y="260.8769"/><ellipse cx="2525.91" cy="276.8769" fill="#ADD1B2" rx="11" ry="11" style="stroke:#181818;stroke-width:1;"/><path d="M2528.8788,282.5175 Q2528.3006,282.8144 2527.66,282.955 Q2527.0194,283.1112 2526.3163,283.1112 Q2523.8163,283.1112 2522.4881,281.4706 Q2521.1756,279.8144 2521.1756,276.6894 Q2521.1756,273.5644 2522.4881,271.9081 Q2523.8163,270.2519 2526.3163,270.2519 Q2527.0194,270.2519 2527.66,270.4081 Q2528.3163,270.5644 2528.8788,270.8612 L2528.8788,273.58 Q2528.2538,273.0019 2527.66,272.7362 Q2527.0663,272.455 2526.4413,272.455 Q2525.0975,272.455 2524.41,273.5331 Q2523.7225,274.5956 2523.7225,276.6894 Q2523.7225,278.7831 2524.41,279.8612 Q2525.0975,280.9237 2526.4413,280.9237 Q2527.0663,280.9237 2527.66,280.6581 Q2528.2538,280.3769 2528.8788,279.7987 L2528.8788,282.5175 Z " fill="#000000"/><text fill="#000000" font-family="sans-serif" font-size="13" font-weight="700" lengthAdjust="spacing" textLength="118.1743" x="2539.91" y="281.3774">AutomationRule</text><line style="stroke:#444444;stroke-width:0.5;" x1="2511.91" x2="2660.0843" y1="292.8769" y2="292.8769"/><text fill="#000000" font-family="sans-serif" font-size="14" lengthAdjust="spacing" textLength="130.0674" x="2516.91" y="309.872">-threshold: Double</text><line style="stroke:#444444;stroke-width:0.5;" x1="2511.91" x2="2660.0843" y1="317.1737" y2="317.1737"/></g><!--class NodeStatus--><g class="entity" data-qualified-name="Monitoring.NodeStatus" data-source-line="119" id="ent0022"><rect fill="#FFFFFF" height="96.8906" rx="2.5" ry="2.5" style="stroke:#444444;stroke-width:0.5;" width="117.4902" x="2696.25" y="244.5769"/><rect fill="#DCE8F8" height="32" rx="2.5" ry="2.5" style="stroke:#DCE8F8;stroke-width:0.5;" width="117.4902" x="2696.25" y="244.5769"/><rect fill="#DCE8F8" height="2.5" style="stroke:#DCE8F8;stroke-width:0.5;" width="117.4902" x="2696.25" y="274.0769"/><rect fill="none" height="96.8906" rx="2.5" ry="2.5" style="stroke:#444444;stroke-width:0.5;" width="117.4902" x="2696.25" y="244.5769"/><ellipse cx="2711.25" cy="260.5769" fill="#EB937F" rx="11" ry="11" style="stroke:#181818;stroke-width:1;"/><path d="M2715.3594,266.5769 L2707.6406,266.5769 L2707.6406,254.1862 L2715.3594,254.1862 L2715.3594,256.3425 L2710.0938,256.3425 L2710.0938,259.0144 L2714.8594,259.0144 L2714.8594,261.1706 L2710.0938,261.1706 L2710.0938,264.4206 L2715.3594,264.4206 L2715.3594,266.5769 Z " fill="#000000"/><text fill="#000000" font-family="sans-serif" font-size="13" font-weight="700" lengthAdjust="spacing" textLength="85.4902" x="2725.25" y="265.0774">NodeStatus</text><line style="stroke:#444444;stroke-width:0.5;" x1="2697.25" x2="2812.7402" y1="276.5769" y2="276.5769"/><text fill="#000000" font-family="sans-serif" font-size="14" lengthAdjust="spacing" textLength="50.4561" x="2702.25" y="293.572">ACTIVE</text><text fill="#000000" font-family="sans-serif" font-size="14" lengthAdjust="spacing" textLength="65.0576" x="2702.25" y="309.8689">INACTIVE</text><text fill="#000000" font-family="sans-serif" font-size="14" lengthAdjust="spacing" textLength="63.4648" x="2702.25" y="326.1657">CRITICAL</text><line style="stroke:#444444;stroke-width:0.5;" x1="2697.25" x2="2812.7402" y1="333.4675" y2="333.4675"/></g><!--class MonitoringApplicationService--><g class="entity" data-qualified-name="Monitoring.MonitoringApplicationService" data-source-line="125" id="ent0023"><rect fill="#FFFFFF" height="48" rx="2.5" ry="2.5" style="stroke:#444444;stroke-width:0.5;" width="249.1152" x="2785.44" y="444.4669"/><rect fill="#DCE8F8" height="32" rx="2.5" ry="2.5" style="stroke:#DCE8F8;stroke-width:0.5;" width="249.1152" x="2785.44" y="444.4669"/><rect fill="#DCE8F8" height="2.5" style="stroke:#DCE8F8;stroke-width:0.5;" width="249.1152" x="2785.44" y="473.9669"/><rect fill="none" height="48" rx="2.5" ry="2.5" style="stroke:#444444;stroke-width:0.5;" width="249.1152" x="2785.44" y="444.4669"/><ellipse cx="2800.44" cy="460.4669" fill="#ADD1B2" rx="11" ry="11" style="stroke:#181818;stroke-width:1;"/><path d="M2803.4088,466.1075 Q2802.8306,466.4044 2802.19,466.545 Q2801.5494,466.7012 2800.8463,466.7012 Q2798.3463,466.7012 2797.0181,465.0606 Q2795.7056,463.4044 2795.7056,460.2794 Q2795.7056,457.1544 2797.0181,455.4981 Q2798.3463,453.8419 2800.8463,453.8419 Q2801.5494,453.8419 2802.19,453.9981 Q2802.8463,454.1544 2803.4088,454.4512 L2803.4088,457.17 Q2802.7838,456.5919 2802.19,456.3262 Q2801.5963,456.045 2800.9713,456.045 Q2799.6275,456.045 2798.94,457.1231 Q2798.2525,458.1856 2798.2525,460.2794 Q2798.2525,462.3731 2798.94,463.4512 Q2799.6275,464.5137 2800.9713,464.5137 Q2801.5963,464.5137 2802.19,464.2481 Q2802.7838,463.9669 2803.4088,463.3887 L2803.4088,466.1075 Z " fill="#000000"/><text fill="#000000" font-family="sans-serif" font-size="13" font-weight="700" lengthAdjust="spacing" textLength="217.1152" x="2814.44" y="464.9674">MonitoringApplicationService</text><line style="stroke:#444444;stroke-width:0.5;" x1="2786.44" x2="3033.5552" y1="476.4669" y2="476.4669"/><line style="stroke:#444444;stroke-width:0.5;" x1="2786.44" x2="3033.5552" y1="484.4669" y2="484.4669"/></g><!--class SensorNodeRepository--><g class="entity" data-qualified-name="Monitoring.SensorNodeRepository" data-source-line="127" id="ent0024"><rect fill="#FFFFFF" height="48" rx="2.5" ry="2.5" style="stroke:#444444;stroke-width:0.5;" width="199.7368" x="2810.13" y="588.6069"/><rect fill="#DCE8F8" height="32" rx="2.5" ry="2.5" style="stroke:#DCE8F8;stroke-width:0.5;" width="199.7368" x="2810.13" y="588.6069"/><rect fill="#DCE8F8" height="2.5" style="stroke:#DCE8F8;stroke-width:0.5;" width="199.7368" x="2810.13" y="618.1069"/><rect fill="none" height="48" rx="2.5" ry="2.5" style="stroke:#444444;stroke-width:0.5;" width="199.7368" x="2810.13" y="588.6069"/><ellipse cx="2825.13" cy="604.6069" fill="#B4A7E5" rx="11" ry="11" style="stroke:#181818;stroke-width:1;"/><path d="M2821.0519,600.3725 L2821.0519,598.2163 L2828.4425,598.2163 L2828.4425,600.3725 L2825.9738,600.3725 L2825.9738,608.4506 L2828.4425,608.4506 L2828.4425,610.6069 L2821.0519,610.6069 L2821.0519,608.4506 L2823.5206,608.4506 L2823.5206,600.3725 L2821.0519,600.3725 Z " fill="#000000"/><text fill="#000000" font-family="sans-serif" font-size="13" font-style="italic" font-weight="700" lengthAdjust="spacing" textLength="167.7368" x="2839.13" y="609.1074">SensorNodeRepository</text><line style="stroke:#444444;stroke-width:0.5;" x1="2811.13" x2="3008.8668" y1="620.6069" y2="620.6069"/><line style="stroke:#444444;stroke-width:0.5;" x1="2811.13" x2="3008.8668" y1="628.6069" y2="628.6069"/></g><!--class MonitoringController--><g class="entity" data-qualified-name="Monitoring.MonitoringController" data-source-line="129" id="ent0025"><rect fill="#FFFFFF" height="48" rx="2.5" ry="2.5" style="stroke:#444444;stroke-width:0.5;" width="185.5752" x="2849.21" y="269.0169"/><rect fill="#DCE8F8" height="32" rx="2.5" ry="2.5" style="stroke:#DCE8F8;stroke-width:0.5;" width="185.5752" x="2849.21" y="269.0169"/><rect fill="#DCE8F8" height="2.5" style="stroke:#DCE8F8;stroke-width:0.5;" width="185.5752" x="2849.21" y="298.5169"/><rect fill="none" height="48" rx="2.5" ry="2.5" style="stroke:#444444;stroke-width:0.5;" width="185.5752" x="2849.21" y="269.0169"/><ellipse cx="2864.21" cy="285.0169" fill="#ADD1B2" rx="11" ry="11" style="stroke:#181818;stroke-width:1;"/><path d="M2867.1788,290.6575 Q2866.6006,290.9544 2865.96,291.095 Q2865.3194,291.2512 2864.6163,291.2512 Q2862.1163,291.2512 2860.7881,289.6106 Q2859.4756,287.9544 2859.4756,284.8294 Q2859.4756,281.7044 2860.7881,280.0481 Q2862.1163,278.3919 2864.6163,278.3919 Q2865.3194,278.3919 2865.96,278.5481 Q2866.6163,278.7044 2867.1788,279.0012 L2867.1788,281.72 Q2866.5538,281.1419 2865.96,280.8762 Q2865.3663,280.595 2864.7413,280.595 Q2863.3975,280.595 2862.71,281.6731 Q2862.0225,282.7356 2862.0225,284.8294 Q2862.0225,286.9231 2862.71,288.0012 Q2863.3975,289.0637 2864.7413,289.0637 Q2865.3663,289.0637 2865.96,288.7981 Q2866.5538,288.5169 2867.1788,287.9387 L2867.1788,290.6575 Z " fill="#000000"/><text fill="#000000" font-family="sans-serif" font-size="13" font-weight="700" lengthAdjust="spacing" textLength="153.5752" x="2878.21" y="289.5174">MonitoringController</text><line style="stroke:#444444;stroke-width:0.5;" x1="2850.21" x2="3033.7852" y1="301.0169" y2="301.0169"/><line style="stroke:#444444;stroke-width:0.5;" x1="2850.21" x2="3033.7852" y1="309.0169" y2="309.0169"/></g><!--class Device--><g class="entity" data-qualified-name="Device.Device" data-source-line="139" id="ent0027"><rect fill="#FFFFFF" height="101.6641" rx="2.5" ry="2.5" style="stroke:#444444;stroke-width:0.5;" width="223.1416" x="3126.43" y="242.1869"/><rect fill="#DCE8F8" height="53.0703" rx="2.5" ry="2.5" style="stroke:#DCE8F8;stroke-width:0.5;" width="223.1416" x="3126.43" y="242.1869"/><rect fill="#DCE8F8" height="2.5" style="stroke:#DCE8F8;stroke-width:0.5;" width="223.1416" x="3126.43" y="292.7572"/><rect fill="none" height="101.6641" rx="2.5" ry="2.5" style="stroke:#444444;stroke-width:0.5;" width="223.1416" x="3126.43" y="242.1869"/><ellipse cx="3177.1365" cy="268.722" fill="#ADD1B2" rx="11" ry="11" style="stroke:#181818;stroke-width:1;"/><path d="M3180.1053,274.3627 Q3179.5272,274.6595 3178.8865,274.8002 Q3178.2459,274.9564 3177.5428,274.9564 Q3175.0428,274.9564 3173.7147,273.3158 Q3172.4022,271.6595 3172.4022,268.5345 Q3172.4022,265.4095 3173.7147,263.7533 Q3175.0428,262.097 3177.5428,262.097 Q3178.2459,262.097 3178.8865,262.2533 Q3179.5428,262.4095 3180.1053,262.7064 L3180.1053,265.4252 Q3179.4803,264.847 3178.8865,264.5814 Q3178.2928,264.3002 3177.6678,264.3002 Q3176.324,264.3002 3175.6365,265.3783 Q3174.949,266.4408 3174.949,268.5345 Q3174.949,270.6283 3175.6365,271.7064 Q3176.324,272.7689 3177.6678,272.7689 Q3178.2928,272.7689 3178.8865,272.5033 Q3179.4803,272.222 3180.1053,271.6439 L3180.1053,274.3627 Z " fill="#000000"/><text fill="#000000" font-family="sans-serif" font-size="12" font-style="italic" lengthAdjust="spacing" textLength="61.7168" x="3223.3924" y="258.3255">&#171;@Entity&#187;</text><text fill="#000000" font-family="sans-serif" font-size="12" font-style="italic" lengthAdjust="spacing" textLength="117.2285" x="3195.6365" y="272.2943">&#171;@AggregateRoot&#187;</text><text fill="#000000" font-family="sans-serif" font-size="13" font-weight="700" lengthAdjust="spacing" textLength="49.061" x="3229.7203" y="287.1913">Device</text><line style="stroke:#444444;stroke-width:0.5;" x1="3127.43" x2="3348.5716" y1="295.2572" y2="295.2572"/><text fill="#000000" font-family="sans-serif" font-size="14" lengthAdjust="spacing" textLength="111.7266" x="3132.43" y="312.2523">-nodeId: NodeId</text><text fill="#000000" font-family="sans-serif" font-size="14" lengthAdjust="spacing" textLength="211.1416" x="3132.43" y="328.5492">-status: DeviceLifecycleStatus</text><line style="stroke:#444444;stroke-width:0.5;" x1="3127.43" x2="3348.5716" y1="335.8509" y2="335.8509"/></g><!--class DeviceOwnership--><g class="entity" data-qualified-name="Device.DeviceOwnership" data-source-line="144" id="ent0028"><rect fill="#FFFFFF" height="64.2969" rx="2.5" ry="2.5" style="stroke:#444444;stroke-width:0.5;" width="159.3594" x="3384.32" y="260.8769"/><rect fill="#DCE8F8" height="32" rx="2.5" ry="2.5" style="stroke:#DCE8F8;stroke-width:0.5;" width="159.3594" x="3384.32" y="260.8769"/><rect fill="#DCE8F8" height="2.5" style="stroke:#DCE8F8;stroke-width:0.5;" width="159.3594" x="3384.32" y="290.3769"/><rect fill="none" height="64.2969" rx="2.5" ry="2.5" style="stroke:#444444;stroke-width:0.5;" width="159.3594" x="3384.32" y="260.8769"/><ellipse cx="3399.32" cy="276.8769" fill="#ADD1B2" rx="11" ry="11" style="stroke:#181818;stroke-width:1;"/><path d="M3402.2888,282.5175 Q3401.7106,282.8144 3401.07,282.955 Q3400.4294,283.1112 3399.7263,283.1112 Q3397.2263,283.1112 3395.8981,281.4706 Q3394.5856,279.8144 3394.5856,276.6894 Q3394.5856,273.5644 3395.8981,271.9081 Q3397.2263,270.2519 3399.7263,270.2519 Q3400.4294,270.2519 3401.07,270.4081 Q3401.7263,270.5644 3402.2888,270.8612 L3402.2888,273.58 Q3401.6638,273.0019 3401.07,272.7362 Q3400.4763,272.455 3399.8513,272.455 Q3398.5075,272.455 3397.82,273.5331 Q3397.1325,274.5956 3397.1325,276.6894 Q3397.1325,278.7831 3397.82,279.8612 Q3398.5075,280.9237 3399.8513,280.9237 Q3400.4763,280.9237 3401.07,280.6581 Q3401.6638,280.3769 3402.2888,279.7987 L3402.2888,282.5175 Z " fill="#000000"/><text fill="#000000" font-family="sans-serif" font-size="13" font-weight="700" lengthAdjust="spacing" textLength="127.3594" x="3413.32" y="281.3774">DeviceOwnership</text><line style="stroke:#444444;stroke-width:0.5;" x1="3385.32" x2="3542.6794" y1="292.8769" y2="292.8769"/><text fill="#000000" font-family="sans-serif" font-size="14" lengthAdjust="spacing" textLength="102.6963" x="3390.32" y="309.872">-userId: UserId</text><line style="stroke:#444444;stroke-width:0.5;" x1="3385.32" x2="3542.6794" y1="317.1737" y2="317.1737"/></g><!--class DeviceLifecycleStatus--><g class="entity" data-qualified-name="Device.DeviceLifecycleStatus" data-source-line="148" id="ent0029"><rect fill="#FFFFFF" height="80.5938" rx="2.5" ry="2.5" style="stroke:#444444;stroke-width:0.5;" width="192.9893" x="3141.51" y="428.1669"/><rect fill="#DCE8F8" height="32" rx="2.5" ry="2.5" style="stroke:#DCE8F8;stroke-width:0.5;" width="192.9893" x="3141.51" y="428.1669"/><rect fill="#DCE8F8" height="2.5" style="stroke:#DCE8F8;stroke-width:0.5;" width="192.9893" x="3141.51" y="457.6669"/><rect fill="none" height="80.5938" rx="2.5" ry="2.5" style="stroke:#444444;stroke-width:0.5;" width="192.9893" x="3141.51" y="428.1669"/><ellipse cx="3156.51" cy="444.1669" fill="#EB937F" rx="11" ry="11" style="stroke:#181818;stroke-width:1;"/><path d="M3160.6194,450.1669 L3152.9006,450.1669 L3152.9006,437.7762 L3160.6194,437.7762 L3160.6194,439.9325 L3155.3538,439.9325 L3155.3538,442.6044 L3160.1194,442.6044 L3160.1194,444.7606 L3155.3538,444.7606 L3155.3538,448.0106 L3160.6194,448.0106 L3160.6194,450.1669 Z " fill="#000000"/><text fill="#000000" font-family="sans-serif" font-size="13" font-weight="700" lengthAdjust="spacing" textLength="160.9893" x="3170.51" y="448.6674">DeviceLifecycleStatus</text><line style="stroke:#444444;stroke-width:0.5;" x1="3142.51" x2="3333.4993" y1="460.1669" y2="460.1669"/><text fill="#000000" font-family="sans-serif" font-size="14" lengthAdjust="spacing" textLength="89.1885" x="3147.51" y="477.162">REGISTERED</text><text fill="#000000" font-family="sans-serif" font-size="14" lengthAdjust="spacing" textLength="50.4561" x="3147.51" y="493.4589">ACTIVE</text><line style="stroke:#444444;stroke-width:0.5;" x1="3142.51" x2="3333.4993" y1="500.7606" y2="500.7606"/></g><!--class DeviceApplicationService--><g class="entity" data-qualified-name="Device.DeviceApplicationService" data-source-line="153" id="ent0030"><rect fill="#FFFFFF" height="48" rx="2.5" ry="2.5" style="stroke:#444444;stroke-width:0.5;" width="218.0244" x="3514.99" y="444.4669"/><rect fill="#DCE8F8" height="32" rx="2.5" ry="2.5" style="stroke:#DCE8F8;stroke-width:0.5;" width="218.0244" x="3514.99" y="444.4669"/><rect fill="#DCE8F8" height="2.5" style="stroke:#DCE8F8;stroke-width:0.5;" width="218.0244" x="3514.99" y="473.9669"/><rect fill="none" height="48" rx="2.5" ry="2.5" style="stroke:#444444;stroke-width:0.5;" width="218.0244" x="3514.99" y="444.4669"/><ellipse cx="3529.99" cy="460.4669" fill="#ADD1B2" rx="11" ry="11" style="stroke:#181818;stroke-width:1;"/><path d="M3532.9588,466.1075 Q3532.3806,466.4044 3531.74,466.545 Q3531.0994,466.7012 3530.3963,466.7012 Q3527.8963,466.7012 3526.5681,465.0606 Q3525.2556,463.4044 3525.2556,460.2794 Q3525.2556,457.1544 3526.5681,455.4981 Q3527.8963,453.8419 3530.3963,453.8419 Q3531.0994,453.8419 3531.74,453.9981 Q3532.3963,454.1544 3532.9588,454.4512 L3532.9588,457.17 Q3532.3338,456.5919 3531.74,456.3262 Q3531.1463,456.045 3530.5213,456.045 Q3529.1775,456.045 3528.49,457.1231 Q3527.8025,458.1856 3527.8025,460.2794 Q3527.8025,462.3731 3528.49,463.4512 Q3529.1775,464.5137 3530.5213,464.5137 Q3531.1463,464.5137 3531.74,464.2481 Q3532.3338,463.9669 3532.9588,463.3887 L3532.9588,466.1075 Z " fill="#000000"/><text fill="#000000" font-family="sans-serif" font-size="13" font-weight="700" lengthAdjust="spacing" textLength="186.0244" x="3543.99" y="464.9674">DeviceApplicationService</text><line style="stroke:#444444;stroke-width:0.5;" x1="3515.99" x2="3732.0144" y1="476.4669" y2="476.4669"/><line style="stroke:#444444;stroke-width:0.5;" x1="3515.99" x2="3732.0144" y1="484.4669" y2="484.4669"/></g><!--class DeviceRepository--><g class="entity" data-qualified-name="Device.DeviceRepository" data-source-line="155" id="ent0031"><rect fill="#FFFFFF" height="48" rx="2.5" ry="2.5" style="stroke:#444444;stroke-width:0.5;" width="160.3496" x="3543.83" y="588.6069"/><rect fill="#DCE8F8" height="32" rx="2.5" ry="2.5" style="stroke:#DCE8F8;stroke-width:0.5;" width="160.3496" x="3543.83" y="588.6069"/><rect fill="#DCE8F8" height="2.5" style="stroke:#DCE8F8;stroke-width:0.5;" width="160.3496" x="3543.83" y="618.1069"/><rect fill="none" height="48" rx="2.5" ry="2.5" style="stroke:#444444;stroke-width:0.5;" width="160.3496" x="3543.83" y="588.6069"/><ellipse cx="3558.83" cy="604.6069" fill="#B4A7E5" rx="11" ry="11" style="stroke:#181818;stroke-width:1;"/><path d="M3554.7519,600.3725 L3554.7519,598.2163 L3562.1425,598.2163 L3562.1425,600.3725 L3559.6738,600.3725 L3559.6738,608.4506 L3562.1425,608.4506 L3562.1425,610.6069 L3554.7519,610.6069 L3554.7519,608.4506 L3557.2206,608.4506 L3557.2206,600.3725 L3554.7519,600.3725 Z " fill="#000000"/><text fill="#000000" font-family="sans-serif" font-size="13" font-style="italic" font-weight="700" lengthAdjust="spacing" textLength="128.3496" x="3572.83" y="609.1074">DeviceRepository</text><line style="stroke:#444444;stroke-width:0.5;" x1="3544.83" x2="3703.1796" y1="620.6069" y2="620.6069"/><line style="stroke:#444444;stroke-width:0.5;" x1="3544.83" x2="3703.1796" y1="628.6069" y2="628.6069"/></g><!--class DeviceController--><g class="entity" data-qualified-name="Device.DeviceController" data-source-line="157" id="ent0032"><rect fill="#FFFFFF" height="48" rx="2.5" ry="2.5" style="stroke:#444444;stroke-width:0.5;" width="154.4844" x="3578.76" y="269.0169"/><rect fill="#DCE8F8" height="32" rx="2.5" ry="2.5" style="stroke:#DCE8F8;stroke-width:0.5;" width="154.4844" x="3578.76" y="269.0169"/><rect fill="#DCE8F8" height="2.5" style="stroke:#DCE8F8;stroke-width:0.5;" width="154.4844" x="3578.76" y="298.5169"/><rect fill="none" height="48" rx="2.5" ry="2.5" style="stroke:#444444;stroke-width:0.5;" width="154.4844" x="3578.76" y="269.0169"/><ellipse cx="3593.76" cy="285.0169" fill="#ADD1B2" rx="11" ry="11" style="stroke:#181818;stroke-width:1;"/><path d="M3596.7288,290.6575 Q3596.1506,290.9544 3595.51,291.095 Q3594.8694,291.2512 3594.1663,291.2512 Q3591.6663,291.2512 3590.3381,289.6106 Q3589.0256,287.9544 3589.0256,284.8294 Q3589.0256,281.7044 3590.3381,280.0481 Q3591.6663,278.3919 3594.1663,278.3919 Q3594.8694,278.3919 3595.51,278.5481 Q3596.1663,278.7044 3596.7288,279.0012 L3596.7288,281.72 Q3596.1038,281.1419 3595.51,280.8762 Q3594.9163,280.595 3594.2913,280.595 Q3592.9475,280.595 3592.26,281.6731 Q3591.5725,282.7356 3591.5725,284.8294 Q3591.5725,286.9231 3592.26,288.0012 Q3592.9475,289.0637 3594.2913,289.0637 Q3594.9163,289.0637 3595.51,288.7981 Q3596.1038,288.5169 3596.7288,287.9387 L3596.7288,290.6575 Z " fill="#000000"/><text fill="#000000" font-family="sans-serif" font-size="13" font-weight="700" lengthAdjust="spacing" textLength="122.4844" x="3607.76" y="289.5174">DeviceController</text><line style="stroke:#444444;stroke-width:0.5;" x1="3579.76" x2="3732.2444" y1="301.0169" y2="301.0169"/><line style="stroke:#444444;stroke-width:0.5;" x1="3579.76" x2="3732.2444" y1="309.0169" y2="309.0169"/></g><!--class ReportEngine--><g class="entity" data-qualified-name="Analytics.ReportEngine" data-source-line="167" id="ent0034"><rect fill="#FFFFFF" height="85.3672" rx="2.5" ry="2.5" style="stroke:#444444;stroke-width:0.5;" width="145.2285" x="4528.39" y="84.0569"/><rect fill="#DCE8F8" height="53.0703" rx="2.5" ry="2.5" style="stroke:#DCE8F8;stroke-width:0.5;" width="145.2285" x="4528.39" y="84.0569"/><rect fill="#DCE8F8" height="2.5" style="stroke:#DCE8F8;stroke-width:0.5;" width="145.2285" x="4528.39" y="134.6272"/><rect fill="none" height="85.3672" rx="2.5" ry="2.5" style="stroke:#444444;stroke-width:0.5;" width="145.2285" x="4528.39" y="84.0569"/><ellipse cx="4543.39" cy="110.592" fill="#ADD1B2" rx="11" ry="11" style="stroke:#181818;stroke-width:1;"/><path d="M4546.3588,116.2327 Q4545.7806,116.5295 4545.14,116.6702 Q4544.4994,116.8264 4543.7963,116.8264 Q4541.2963,116.8264 4539.9681,115.1858 Q4538.6556,113.5295 4538.6556,110.4045 Q4538.6556,107.2795 4539.9681,105.6233 Q4541.2963,103.967 4543.7963,103.967 Q4544.4994,103.967 4545.14,104.1233 Q4545.7963,104.2795 4546.3588,104.5764 L4546.3588,107.2952 Q4545.7338,106.717 4545.14,106.4514 Q4544.5463,106.1702 4543.9213,106.1702 Q4542.5775,106.1702 4541.89,107.2483 Q4541.2025,108.3108 4541.2025,110.4045 Q4541.2025,112.4983 4541.89,113.5764 Q4542.5775,114.6389 4543.9213,114.6389 Q4544.5463,114.6389 4545.14,114.3733 Q4545.7338,114.092 4546.3588,113.5139 L4546.3588,116.2327 Z " fill="#000000"/><text fill="#000000" font-family="sans-serif" font-size="12" font-style="italic" lengthAdjust="spacing" textLength="61.7168" x="4583.1459" y="100.1955">&#171;@Entity&#187;</text><text fill="#000000" font-family="sans-serif" font-size="12" font-style="italic" lengthAdjust="spacing" textLength="117.2285" x="4555.39" y="114.1643">&#171;@AggregateRoot&#187;</text><text fill="#000000" font-family="sans-serif" font-size="13" font-weight="700" lengthAdjust="spacing" textLength="99.6582" x="4564.1752" y="129.0613">ReportEngine</text><line style="stroke:#444444;stroke-width:0.5;" x1="4529.39" x2="4672.6185" y1="137.1272" y2="137.1272"/><text fill="#000000" font-family="sans-serif" font-size="14" lengthAdjust="spacing" textLength="105.7041" x="4534.39" y="154.1223">-reportId: UUID</text><line style="stroke:#444444;stroke-width:0.5;" x1="4529.39" x2="4672.6185" y1="161.4241" y2="161.4241"/></g><!--class MonthlyReport--><g class="entity" data-qualified-name="Analytics.MonthlyReport" data-source-line="171" id="ent0035"><rect fill="#FFFFFF" height="64.2969" rx="2.5" ry="2.5" style="stroke:#444444;stroke-width:0.5;" width="141.2114" x="4708.39" y="94.5969"/><rect fill="#DCE8F8" height="32" rx="2.5" ry="2.5" style="stroke:#DCE8F8;stroke-width:0.5;" width="141.2114" x="4708.39" y="94.5969"/><rect fill="#DCE8F8" height="2.5" style="stroke:#DCE8F8;stroke-width:0.5;" width="141.2114" x="4708.39" y="124.0969"/><rect fill="none" height="64.2969" rx="2.5" ry="2.5" style="stroke:#444444;stroke-width:0.5;" width="141.2114" x="4708.39" y="94.5969"/><ellipse cx="4723.39" cy="110.5969" fill="#ADD1B2" rx="11" ry="11" style="stroke:#181818;stroke-width:1;"/><path d="M4726.3588,116.2375 Q4725.7806,116.5344 4725.14,116.675 Q4724.4994,116.8312 4723.7963,116.8312 Q4721.2963,116.8312 4719.9681,115.1906 Q4718.6556,113.5344 4718.6556,110.4094 Q4718.6556,107.2844 4719.9681,105.6281 Q4721.2963,103.9719 4723.7963,103.9719 Q4724.4994,103.9719 4725.14,104.1281 Q4725.7963,104.2844 4726.3588,104.5812 L4726.3588,107.3 Q4725.7338,106.7219 4725.14,106.4562 Q4724.5463,106.175 4723.9213,106.175 Q4722.5775,106.175 4721.89,107.2531 Q4721.2025,108.3156 4721.2025,110.4094 Q4721.2025,112.5031 4721.89,113.5812 Q4722.5775,114.6437 4723.9213,114.6437 Q4724.5463,114.6437 4725.14,114.3781 Q4725.7338,114.0969 4726.3588,113.5187 L4726.3588,116.2375 Z " fill="#000000"/><text fill="#000000" font-family="sans-serif" font-size="13" font-weight="700" lengthAdjust="spacing" textLength="109.2114" x="4737.39" y="115.0974">MonthlyReport</text><line style="stroke:#444444;stroke-width:0.5;" x1="4709.39" x2="4848.6014" y1="126.5969" y2="126.5969"/><text fill="#000000" font-family="sans-serif" font-size="14" lengthAdjust="spacing" textLength="101.7529" x="4714.39" y="143.592">-score: Double</text><line style="stroke:#444444;stroke-width:0.5;" x1="4709.39" x2="4848.6014" y1="150.8937" y2="150.8937"/></g><!--class AnalyticsApplicationService--><g class="entity" data-qualified-name="Analytics.AnalyticsApplicationService" data-source-line="175" id="ent0036"><rect fill="#FFFFFF" height="48" rx="2.5" ry="2.5" style="stroke:#444444;stroke-width:0.5;" width="236.0962" x="4820.95" y="269.0169"/><rect fill="#DCE8F8" height="32" rx="2.5" ry="2.5" style="stroke:#DCE8F8;stroke-width:0.5;" width="236.0962" x="4820.95" y="269.0169"/><rect fill="#DCE8F8" height="2.5" style="stroke:#DCE8F8;stroke-width:0.5;" width="236.0962" x="4820.95" y="298.5169"/><rect fill="none" height="48" rx="2.5" ry="2.5" style="stroke:#444444;stroke-width:0.5;" width="236.0962" x="4820.95" y="269.0169"/><ellipse cx="4835.95" cy="285.0169" fill="#ADD1B2" rx="11" ry="11" style="stroke:#181818;stroke-width:1;"/><path d="M4838.9188,290.6575 Q4838.3406,290.9544 4837.7,291.095 Q4837.0594,291.2512 4836.3563,291.2512 Q4833.8563,291.2512 4832.5281,289.6106 Q4831.2156,287.9544 4831.2156,284.8294 Q4831.2156,281.7044 4832.5281,280.0481 Q4833.8563,278.3919 4836.3563,278.3919 Q4837.0594,278.3919 4837.7,278.5481 Q4838.3563,278.7044 4838.9188,279.0012 L4838.9188,281.72 Q4838.2938,281.1419 4837.7,280.8762 Q4837.1063,280.595 4836.4813,280.595 Q4835.1375,280.595 4834.45,281.6731 Q4833.7625,282.7356 4833.7625,284.8294 Q4833.7625,286.9231 4834.45,288.0012 Q4835.1375,289.0637 4836.4813,289.0637 Q4837.1063,289.0637 4837.7,288.7981 Q4838.2938,288.5169 4838.9188,287.9387 L4838.9188,290.6575 Z " fill="#000000"/><text fill="#000000" font-family="sans-serif" font-size="13" font-weight="700" lengthAdjust="spacing" textLength="204.0962" x="4849.95" y="289.5174">AnalyticsApplicationService</text><line style="stroke:#444444;stroke-width:0.5;" x1="4821.95" x2="5056.0462" y1="301.0169" y2="301.0169"/><line style="stroke:#444444;stroke-width:0.5;" x1="4821.95" x2="5056.0462" y1="309.0169" y2="309.0169"/></g><!--class ReportEngineRepository--><g class="entity" data-qualified-name="Analytics.ReportEngineRepository" data-source-line="177" id="ent0037"><rect fill="#FFFFFF" height="48" rx="2.5" ry="2.5" style="stroke:#444444;stroke-width:0.5;" width="210.9468" x="4833.53" y="444.4669"/><rect fill="#DCE8F8" height="32" rx="2.5" ry="2.5" style="stroke:#DCE8F8;stroke-width:0.5;" width="210.9468" x="4833.53" y="444.4669"/><rect fill="#DCE8F8" height="2.5" style="stroke:#DCE8F8;stroke-width:0.5;" width="210.9468" x="4833.53" y="473.9669"/><rect fill="none" height="48" rx="2.5" ry="2.5" style="stroke:#444444;stroke-width:0.5;" width="210.9468" x="4833.53" y="444.4669"/><ellipse cx="4848.53" cy="460.4669" fill="#B4A7E5" rx="11" ry="11" style="stroke:#181818;stroke-width:1;"/><path d="M4844.4519,456.2325 L4844.4519,454.0762 L4851.8425,454.0762 L4851.8425,456.2325 L4849.3738,456.2325 L4849.3738,464.3106 L4851.8425,464.3106 L4851.8425,466.4669 L4844.4519,466.4669 L4844.4519,464.3106 L4846.9206,464.3106 L4846.9206,456.2325 L4844.4519,456.2325 Z " fill="#000000"/><text fill="#000000" font-family="sans-serif" font-size="13" font-style="italic" font-weight="700" lengthAdjust="spacing" textLength="178.9468" x="4862.53" y="464.9674">ReportEngineRepository</text><line style="stroke:#444444;stroke-width:0.5;" x1="4834.53" x2="5043.4768" y1="476.4669" y2="476.4669"/><line style="stroke:#444444;stroke-width:0.5;" x1="4834.53" x2="5043.4768" y1="484.4669" y2="484.4669"/></g><!--class AnalyticsController--><g class="entity" data-qualified-name="Analytics.AnalyticsController" data-source-line="179" id="ent0038"><rect fill="#FFFFFF" height="48" rx="2.5" ry="2.5" style="stroke:#444444;stroke-width:0.5;" width="172.5562" x="4884.72" y="102.7469"/><rect fill="#DCE8F8" height="32" rx="2.5" ry="2.5" style="stroke:#DCE8F8;stroke-width:0.5;" width="172.5562" x="4884.72" y="102.7469"/><rect fill="#DCE8F8" height="2.5" style="stroke:#DCE8F8;stroke-width:0.5;" width="172.5562" x="4884.72" y="132.2469"/><rect fill="none" height="48" rx="2.5" ry="2.5" style="stroke:#444444;stroke-width:0.5;" width="172.5562" x="4884.72" y="102.7469"/><ellipse cx="4899.72" cy="118.7469" fill="#ADD1B2" rx="11" ry="11" style="stroke:#181818;stroke-width:1;"/><path d="M4902.6888,124.3875 Q4902.1106,124.6844 4901.47,124.825 Q4900.8294,124.9812 4900.1263,124.9812 Q4897.6263,124.9812 4896.2981,123.3406 Q4894.9856,121.6844 4894.9856,118.5594 Q4894.9856,115.4344 4896.2981,113.7781 Q4897.6263,112.1219 4900.1263,112.1219 Q4900.8294,112.1219 4901.47,112.2781 Q4902.1263,112.4344 4902.6888,112.7312 L4902.6888,115.45 Q4902.0638,114.8719 4901.47,114.6062 Q4900.8763,114.325 4900.2513,114.325 Q4898.9075,114.325 4898.22,115.4031 Q4897.5325,116.4656 4897.5325,118.5594 Q4897.5325,120.6531 4898.22,121.7312 Q4898.9075,122.7937 4900.2513,122.7937 Q4900.8763,122.7937 4901.47,122.5281 Q4902.0638,122.2469 4902.6888,121.6687 L4902.6888,124.3875 Z " fill="#000000"/><text fill="#000000" font-family="sans-serif" font-size="13" font-weight="700" lengthAdjust="spacing" textLength="140.5562" x="4913.72" y="123.2474">AnalyticsController</text><line style="stroke:#444444;stroke-width:0.5;" x1="4885.72" x2="5056.2762" y1="134.7469" y2="134.7469"/><line style="stroke:#444444;stroke-width:0.5;" x1="4885.72" x2="5056.2762" y1="142.7469" y2="142.7469"/></g><!--class Order--><g class="entity" data-qualified-name="Payment.Order" data-source-line="189" id="ent0040"><rect fill="#FFFFFF" height="101.6641" rx="2.5" ry="2.5" style="stroke:#444444;stroke-width:0.5;" width="145.2285" x="3805.39" y="242.1869"/><rect fill="#DCE8F8" height="53.0703" rx="2.5" ry="2.5" style="stroke:#DCE8F8;stroke-width:0.5;" width="145.2285" x="3805.39" y="242.1869"/><rect fill="#DCE8F8" height="2.5" style="stroke:#DCE8F8;stroke-width:0.5;" width="145.2285" x="3805.39" y="292.7572"/><rect fill="none" height="101.6641" rx="2.5" ry="2.5" style="stroke:#444444;stroke-width:0.5;" width="145.2285" x="3805.39" y="242.1869"/><ellipse cx="3820.39" cy="268.722" fill="#ADD1B2" rx="11" ry="11" style="stroke:#181818;stroke-width:1;"/><path d="M3823.3588,274.3627 Q3822.7806,274.6595 3822.14,274.8002 Q3821.4994,274.9564 3820.7963,274.9564 Q3818.2963,274.9564 3816.9681,273.3158 Q3815.6556,271.6595 3815.6556,268.5345 Q3815.6556,265.4095 3816.9681,263.7533 Q3818.2963,262.097 3820.7963,262.097 Q3821.4994,262.097 3822.14,262.2533 Q3822.7963,262.4095 3823.3588,262.7064 L3823.3588,265.4252 Q3822.7338,264.847 3822.14,264.5814 Q3821.5463,264.3002 3820.9213,264.3002 Q3819.5775,264.3002 3818.89,265.3783 Q3818.2025,266.4408 3818.2025,268.5345 Q3818.2025,270.6283 3818.89,271.7064 Q3819.5775,272.7689 3820.9213,272.7689 Q3821.5463,272.7689 3822.14,272.5033 Q3822.7338,272.222 3823.3588,271.6439 L3823.3588,274.3627 Z " fill="#000000"/><text fill="#000000" font-family="sans-serif" font-size="12" font-style="italic" lengthAdjust="spacing" textLength="61.7168" x="3860.1459" y="258.3255">&#171;@Entity&#187;</text><text fill="#000000" font-family="sans-serif" font-size="12" font-style="italic" lengthAdjust="spacing" textLength="117.2285" x="3832.39" y="272.2943">&#171;@AggregateRoot&#187;</text><text fill="#000000" font-family="sans-serif" font-size="13" font-weight="700" lengthAdjust="spacing" textLength="41.9961" x="3870.0062" y="287.1913">Order</text><line style="stroke:#444444;stroke-width:0.5;" x1="3806.39" x2="3949.6185" y1="295.2572" y2="295.2572"/><text fill="#000000" font-family="sans-serif" font-size="14" lengthAdjust="spacing" textLength="100.2148" x="3811.39" y="312.2523">-orderId: UUID</text><text fill="#000000" font-family="sans-serif" font-size="14" lengthAdjust="spacing" textLength="114.6523" x="3811.39" y="328.5492">-amount: Money</text><line style="stroke:#444444;stroke-width:0.5;" x1="3806.39" x2="3949.6185" y1="335.8509" y2="335.8509"/></g><!--class Subscription--><g class="entity" data-qualified-name="Payment.Subscription" data-source-line="194" id="ent0041"><rect fill="#FFFFFF" height="64.2969" rx="2.5" ry="2.5" style="stroke:#444444;stroke-width:0.5;" width="124.3965" x="3985.8" y="260.8769"/><rect fill="#DCE8F8" height="32" rx="2.5" ry="2.5" style="stroke:#DCE8F8;stroke-width:0.5;" width="124.3965" x="3985.8" y="260.8769"/><rect fill="#DCE8F8" height="2.5" style="stroke:#DCE8F8;stroke-width:0.5;" width="124.3965" x="3985.8" y="290.3769"/><rect fill="none" height="64.2969" rx="2.5" ry="2.5" style="stroke:#444444;stroke-width:0.5;" width="124.3965" x="3985.8" y="260.8769"/><ellipse cx="4000.8" cy="276.8769" fill="#ADD1B2" rx="11" ry="11" style="stroke:#181818;stroke-width:1;"/><path d="M4003.7688,282.5175 Q4003.1906,282.8144 4002.55,282.955 Q4001.9094,283.1112 4001.2063,283.1112 Q3998.7063,283.1112 3997.3781,281.4706 Q3996.0656,279.8144 3996.0656,276.6894 Q3996.0656,273.5644 3997.3781,271.9081 Q3998.7063,270.2519 4001.2063,270.2519 Q4001.9094,270.2519 4002.55,270.4081 Q4003.2063,270.5644 4003.7688,270.8612 L4003.7688,273.58 Q4003.1438,273.0019 4002.55,272.7362 Q4001.9563,272.455 4001.3313,272.455 Q3999.9875,272.455 3999.3,273.5331 Q3998.6125,274.5956 3998.6125,276.6894 Q3998.6125,278.7831 3999.3,279.8612 Q3999.9875,280.9237 4001.3313,280.9237 Q4001.9563,280.9237 4002.55,280.6581 Q4003.1438,280.3769 4003.7688,279.7987 L4003.7688,282.5175 Z " fill="#000000"/><text fill="#000000" font-family="sans-serif" font-size="13" font-weight="700" lengthAdjust="spacing" textLength="92.3965" x="4014.8" y="281.3774">Subscription</text><line style="stroke:#444444;stroke-width:0.5;" x1="3986.8" x2="4109.1965" y1="292.8769" y2="292.8769"/><text fill="#000000" font-family="sans-serif" font-size="14" lengthAdjust="spacing" textLength="102.6963" x="3991.8" y="309.872">-userId: UserId</text><line style="stroke:#444444;stroke-width:0.5;" x1="3986.8" x2="4109.1965" y1="317.1737" y2="317.1737"/></g><!--class OrderStatus--><g class="entity" data-qualified-name="Payment.OrderStatus" data-source-line="198" id="ent0042"><rect fill="#FFFFFF" height="80.5938" rx="2.5" ry="2.5" style="stroke:#444444;stroke-width:0.5;" width="121.5527" x="4145.22" y="252.7269"/><rect fill="#DCE8F8" height="32" rx="2.5" ry="2.5" style="stroke:#DCE8F8;stroke-width:0.5;" width="121.5527" x="4145.22" y="252.7269"/><rect fill="#DCE8F8" height="2.5" style="stroke:#DCE8F8;stroke-width:0.5;" width="121.5527" x="4145.22" y="282.2269"/><rect fill="none" height="80.5938" rx="2.5" ry="2.5" style="stroke:#444444;stroke-width:0.5;" width="121.5527" x="4145.22" y="252.7269"/><ellipse cx="4160.22" cy="268.7269" fill="#EB937F" rx="11" ry="11" style="stroke:#181818;stroke-width:1;"/><path d="M4164.3294,274.7269 L4156.6106,274.7269 L4156.6106,262.3362 L4164.3294,262.3362 L4164.3294,264.4925 L4159.0638,264.4925 L4159.0638,267.1644 L4163.8294,267.1644 L4163.8294,269.3206 L4159.0638,269.3206 L4159.0638,272.5706 L4164.3294,272.5706 L4164.3294,274.7269 Z " fill="#000000"/><text fill="#000000" font-family="sans-serif" font-size="13" font-weight="700" lengthAdjust="spacing" textLength="89.5527" x="4174.22" y="273.2274">OrderStatus</text><line style="stroke:#444444;stroke-width:0.5;" x1="4146.22" x2="4265.7727" y1="284.7269" y2="284.7269"/><text fill="#000000" font-family="sans-serif" font-size="14" lengthAdjust="spacing" textLength="63.9912" x="4151.22" y="301.722">PENDING</text><text fill="#000000" font-family="sans-serif" font-size="14" lengthAdjust="spacing" textLength="84.8818" x="4151.22" y="318.0189">CONFIRMED</text><line style="stroke:#444444;stroke-width:0.5;" x1="4146.22" x2="4265.7727" y1="325.3206" y2="325.3206"/></g><!--class PaymentApplicationService--><g class="entity" data-qualified-name="Payment.PaymentApplicationService" data-source-line="203" id="ent0043"><rect fill="#FFFFFF" height="48" rx="2.5" ry="2.5" style="stroke:#444444;stroke-width:0.5;" width="233.5698" x="4238.22" y="444.4669"/><rect fill="#DCE8F8" height="32" rx="2.5" ry="2.5" style="stroke:#DCE8F8;stroke-width:0.5;" width="233.5698" x="4238.22" y="444.4669"/><rect fill="#DCE8F8" height="2.5" style="stroke:#DCE8F8;stroke-width:0.5;" width="233.5698" x="4238.22" y="473.9669"/><rect fill="none" height="48" rx="2.5" ry="2.5" style="stroke:#444444;stroke-width:0.5;" width="233.5698" x="4238.22" y="444.4669"/><ellipse cx="4253.22" cy="460.4669" fill="#ADD1B2" rx="11" ry="11" style="stroke:#181818;stroke-width:1;"/><path d="M4256.1888,466.1075 Q4255.6106,466.4044 4254.97,466.545 Q4254.3294,466.7012 4253.6263,466.7012 Q4251.1263,466.7012 4249.7981,465.0606 Q4248.4856,463.4044 4248.4856,460.2794 Q4248.4856,457.1544 4249.7981,455.4981 Q4251.1263,453.8419 4253.6263,453.8419 Q4254.3294,453.8419 4254.97,453.9981 Q4255.6263,454.1544 4256.1888,454.4512 L4256.1888,457.17 Q4255.5638,456.5919 4254.97,456.3262 Q4254.3763,456.045 4253.7513,456.045 Q4252.4075,456.045 4251.72,457.1231 Q4251.0325,458.1856 4251.0325,460.2794 Q4251.0325,462.3731 4251.72,463.4512 Q4252.4075,464.5137 4253.7513,464.5137 Q4254.3763,464.5137 4254.97,464.2481 Q4255.5638,463.9669 4256.1888,463.3887 L4256.1888,466.1075 Z " fill="#000000"/><text fill="#000000" font-family="sans-serif" font-size="13" font-weight="700" lengthAdjust="spacing" textLength="201.5698" x="4267.22" y="464.9674">PaymentApplicationService</text><line style="stroke:#444444;stroke-width:0.5;" x1="4239.22" x2="4470.7898" y1="476.4669" y2="476.4669"/><line style="stroke:#444444;stroke-width:0.5;" x1="4239.22" x2="4470.7898" y1="484.4669" y2="484.4669"/></g><!--class OrderRepository--><g class="entity" data-qualified-name="Payment.OrderRepository" data-source-line="205" id="ent0044"><rect fill="#FFFFFF" height="48" rx="2.5" ry="2.5" style="stroke:#444444;stroke-width:0.5;" width="153.2847" x="4278.36" y="588.6069"/><rect fill="#DCE8F8" height="32" rx="2.5" ry="2.5" style="stroke:#DCE8F8;stroke-width:0.5;" width="153.2847" x="4278.36" y="588.6069"/><rect fill="#DCE8F8" height="2.5" style="stroke:#DCE8F8;stroke-width:0.5;" width="153.2847" x="4278.36" y="618.1069"/><rect fill="none" height="48" rx="2.5" ry="2.5" style="stroke:#444444;stroke-width:0.5;" width="153.2847" x="4278.36" y="588.6069"/><ellipse cx="4293.36" cy="604.6069" fill="#B4A7E5" rx="11" ry="11" style="stroke:#181818;stroke-width:1;"/><path d="M4289.2819,600.3725 L4289.2819,598.2163 L4296.6725,598.2163 L4296.6725,600.3725 L4294.2038,600.3725 L4294.2038,608.4506 L4296.6725,608.4506 L4296.6725,610.6069 L4289.2819,610.6069 L4289.2819,608.4506 L4291.7506,608.4506 L4291.7506,600.3725 L4289.2819,600.3725 Z " fill="#000000"/><text fill="#000000" font-family="sans-serif" font-size="13" font-style="italic" font-weight="700" lengthAdjust="spacing" textLength="121.2847" x="4307.36" y="609.1074">OrderRepository</text><line style="stroke:#444444;stroke-width:0.5;" x1="4279.36" x2="4430.6447" y1="620.6069" y2="620.6069"/><line style="stroke:#444444;stroke-width:0.5;" x1="4279.36" x2="4430.6447" y1="628.6069" y2="628.6069"/></g><!--class PaymentController--><g class="entity" data-qualified-name="Payment.PaymentController" data-source-line="207" id="ent0045"><rect fill="#FFFFFF" height="48" rx="2.5" ry="2.5" style="stroke:#444444;stroke-width:0.5;" width="170.0298" x="4301.99" y="269.0169"/><rect fill="#DCE8F8" height="32" rx="2.5" ry="2.5" style="stroke:#DCE8F8;stroke-width:0.5;" width="170.0298" x="4301.99" y="269.0169"/><rect fill="#DCE8F8" height="2.5" style="stroke:#DCE8F8;stroke-width:0.5;" width="170.0298" x="4301.99" y="298.5169"/><rect fill="none" height="48" rx="2.5" ry="2.5" style="stroke:#444444;stroke-width:0.5;" width="170.0298" x="4301.99" y="269.0169"/><ellipse cx="4316.99" cy="285.0169" fill="#ADD1B2" rx="11" ry="11" style="stroke:#181818;stroke-width:1;"/><path d="M4319.9588,290.6575 Q4319.3806,290.9544 4318.74,291.095 Q4318.0994,291.2512 4317.3963,291.2512 Q4314.8963,291.2512 4313.5681,289.6106 Q4312.2556,287.9544 4312.2556,284.8294 Q4312.2556,281.7044 4313.5681,280.0481 Q4314.8963,278.3919 4317.3963,278.3919 Q4318.0994,278.3919 4318.74,278.5481 Q4319.3963,278.7044 4319.9588,279.0012 L4319.9588,281.72 Q4319.3338,281.1419 4318.74,280.8762 Q4318.1463,280.595 4317.5213,280.595 Q4316.1775,280.595 4315.49,281.6731 Q4314.8025,282.7356 4314.8025,284.8294 Q4314.8025,286.9231 4315.49,288.0012 Q4316.1775,289.0637 4317.5213,289.0637 Q4318.1463,289.0637 4318.74,288.7981 Q4319.3338,288.5169 4319.9588,287.9387 L4319.9588,290.6575 Z " fill="#000000"/><text fill="#000000" font-family="sans-serif" font-size="13" font-weight="700" lengthAdjust="spacing" textLength="138.0298" x="4330.99" y="289.5174">PaymentController</text><line style="stroke:#444444;stroke-width:0.5;" x1="4302.99" x2="4471.0198" y1="301.0169" y2="301.0169"/><line style="stroke:#444444;stroke-width:0.5;" x1="4302.99" x2="4471.0198" y1="309.0169" y2="309.0169"/></g><!--reverse link AuditableEntity to User--><g class="link" data-entity-1="ent0008" data-entity-2="ent0014" data-link-type="extension" data-source-line="215" id="lnk46"><path codeLine="215" d="M774.64,172.9097 C784.46,175.9997 777.26,173.2669 787,175.1869 C813.38,180.4069 1247.26,170.5569 1271,183.1869 C1294.4,195.6369 1312.11,218.8569 1324.52,240.6669" fill="none" id="AuditableEntity-backto-User" style="stroke:#444444;stroke-width:1.2;"/><polygon fill="none" points="757.47,167.5069,772.8391,178.633,776.441,167.1863,757.47,167.5069" style="stroke:#444444;stroke-width:1.2;"/></g><!--reverse link AuditableEntity to Session--><g class="link" data-entity-1="ent0008" data-entity-2="ent0015" data-link-type="extension" data-source-line="216" id="lnk47"><path codeLine="216" d="M774.2889,172.8432 C784.2289,175.9732 777.15,173.2569 787,175.1869 C821.62,181.9569 1390.57,167.1569 1422,183.1869 C1449.17,197.0469 1469.58,224.7369 1483.11,248.7169" fill="none" id="AuditableEntity-backto-Session" style="stroke:#444444;stroke-width:1.2;"/><polygon fill="none" points="757.12,167.4369,772.4868,178.5662,776.091,167.1202,757.12,167.4369" style="stroke:#444444;stroke-width:1.2;"/></g><!--reverse link AuditableEntity to SensorNode--><g class="link" data-entity-1="ent0008" data-entity-2="ent0020" data-link-type="extension" data-source-line="217" id="lnk48"><path codeLine="217" d="M774.2939,172.8575 C784.2339,175.9775 777.14,173.2769 787,175.1869 C830.36,183.6069 1537.94,180.0469 1582,183.1869 C1857.24,202.7869 2181.3,254.3869 2325.38,278.8269" fill="none" id="AuditableEntity-backto-SensorNode" style="stroke:#444444;stroke-width:1.2;"/><polygon fill="none" points="757.12,167.4669,772.497,178.5821,776.0907,167.1328,757.12,167.4669" style="stroke:#444444;stroke-width:1.2;"/></g><!--reverse link AuditableEntity to Device--><g class="link" data-entity-1="ent0008" data-entity-2="ent0026" data-link-type="extension" data-source-line="218" id="lnk49"><path codeLine="218" d="M774.2839,172.9175 C784.2239,176.0375 777.14,173.3069 787,175.1869 C802.44,178.1369 3038.12,174.1669 3051,183.1869 C3061.3875,190.4644 3069.085,200.7512 3074.7873,212.1256 C3077.6385,217.8128 3079.9909,223.7719 3081.9313,229.7626 C3082.1739,230.5114 3082.41,231.2607 3082.6399,232.0101 C3082.7548,232.3848 3082.8682,232.7595 3082.98,233.1341" fill="none" id="AuditableEntity-backto-Device" style="stroke:#444444;stroke-width:1.2;"/><polygon fill="none" points="757.11,167.5269,772.487,178.6421,776.0807,167.1928,757.11,167.5269" style="stroke:#444444;stroke-width:1.2;"/></g><!--reverse link AuditableEntity to Order--><g class="link" data-entity-1="ent0008" data-entity-2="ent0040" data-link-type="extension" data-source-line="219" id="lnk50"><path codeLine="219" d="M774.2803,172.9068 C784.2303,176.0168 777.14,173.3069 787,175.1869 C827.41,182.8869 3710.38,169.0169 3749,183.1869 C3781.6,195.1569 3811.66,219.3569 3834.54,241.9069" fill="none" id="AuditableEntity-backto-Order" style="stroke:#444444;stroke-width:1.2;"/><polygon fill="none" points="757.1,167.5369,772.4904,178.6336,776.0703,167.18,757.1,167.5369" style="stroke:#444444;stroke-width:1.2;"/></g><!--link User to UserId--><g class="link" data-entity-1="ent0014" data-entity-2="ent0003" data-link-type="dependency" data-source-line="225" id="lnk51"><path codeLine="225" d="M1390.76,345.2169 C1400.2,353.3369 1410.76,360.6369 1422,365.4669 C1454.71,379.5069 1548.55,361.2869 1582,373.4669 C1607.64,382.8069 1627.6941,395.6223 1648.2141,412.3023" fill="none" id="User-to-UserId" style="stroke:#444444;stroke-width:1.2;stroke-dasharray:7,7;"/><polygon fill="#444444" points="1652.87,416.0869,1648.4093,407.3061,1648.9901,412.9331,1643.3632,413.5139,1652.87,416.0869" style="stroke:#444444;stroke-width:1.2;"/></g><!--link User to UserRole--><g class="link" data-entity-1="ent0014" data-entity-2="ent0004" data-link-type="dependency" data-source-line="226" id="lnk52"><path codeLine="226" d="M1390.64,345.4869 C1400.1,353.5769 1410.69,360.8069 1422,365.4669 C1461.66,381.8169 1768.97,355.6569 1808,373.4669 C1833.02,384.8869 1850.3277,402.7241 1865.1177,422.9441" fill="none" id="User-to-UserRole" style="stroke:#444444;stroke-width:1.2;stroke-dasharray:7,7;"/><polygon fill="#444444" points="1868.66,427.7869,1866.5751,418.1612,1865.7081,423.7512,1860.1181,422.8842,1868.66,427.7869" style="stroke:#444444;stroke-width:1.2;"/></g><!--link SensorNode to NodeId--><g class="link" data-entity-1="ent0020" data-entity-2="ent0005" data-link-type="dependency" data-source-line="228" id="lnk53"><path codeLine="228" d="M2325.4,303.6869 C2267.96,313.8469 2189.05,334.0969 2130,373.4669 C2107.3,388.5969 2091.4129,407.6311 2077.9629,427.5911" fill="none" id="SensorNode-to-NodeId" style="stroke:#444444;stroke-width:1.2;stroke-dasharray:7,7;"/><polygon fill="#444444" points="2074.61,432.5669,2082.9565,427.3385,2077.4041,428.4204,2076.3222,422.868,2074.61,432.5669" style="stroke:#444444;stroke-width:1.2;"/></g><!--link Device to NodeId--><g class="link" data-entity-1="ent0026" data-entity-2="ent0005" data-link-type="dependency" data-source-line="229" id="lnk54"><path codeLine="229" d="M3082.8656,322.4862 C3082.8199,322.6036 3082.774,322.7211 3082.7279,322.8388 C3082.5435,323.3095 3082.3554,323.7823 3082.1638,324.2569 C3076.03,339.4444 3066.17,356.4869 3051,365.4669 C3028.98,378.4969 2153.04,362.3469 2130,373.4669 C2104.49,385.7869 2087.8666,406.1198 2074.9066,427.4398" fill="none" id="Device-to-NodeId" style="stroke:#444444;stroke-width:1.2;stroke-dasharray:7,7;"/><polygon fill="#444444" points="2071.79,432.5669,2079.883,426.9541,2074.3872,428.2943,2073.0469,422.7986,2071.79,432.5669" style="stroke:#444444;stroke-width:1.2;"/></g><!--link Order to Money--><g class="link" data-entity-1="ent0040" data-entity-2="ent0011" data-link-type="dependency" data-source-line="230" id="lnk55"><path codeLine="230" d="M3834.17,241.8569 C3811.29,219.4469 3781.36,195.3669 3749,183.1869 C3615.33,132.8669 1421.2,128.2125 970.34,127.7925" fill="none" id="Order-to-Money" style="stroke:#444444;stroke-width:1.2;stroke-dasharray:7,7;"/><polygon fill="#444444" points="964.34,127.7869,973.3363,131.7953,969.34,127.7915,973.3437,123.7953,964.34,127.7869" style="stroke:#444444;stroke-width:1.2;"/></g><!--link AuthApplicationService to UserRepository--><g class="link" data-entity-1="ent0016" data-entity-2="ent0017" data-link-type="dependency" data-source-line="232" id="lnk56"><path codeLine="232" d="M1140.89,501.0069 C1141.55,524.5669 1142.2818,550.6192 1142.9418,574.1492" fill="none" id="AuthApplicationService-to-UserRepository" style="stroke:#444444;stroke-width:1.2;stroke-dasharray:7,7;"/><polygon fill="#444444" points="1143.11,580.1469,1146.8561,571.0383,1142.9698,575.1488,1138.8592,571.2626,1143.11,580.1469" style="stroke:#444444;stroke-width:1.2;"/></g><!--link MonitoringApplicationService to SensorNodeRepository--><g class="link" data-entity-1="ent0023" data-entity-2="ent0024" data-link-type="dependency" data-source-line="233" id="lnk57"><path codeLine="233" d="M2910,492.9369 C2910,519.4269 2910,556.2569 2910,582.5669" fill="none" id="MonitoringApplicationService-to-SensorNodeRepository" style="stroke:#444444;stroke-width:1.2;stroke-dasharray:7,7;"/><polygon fill="#444444" points="2910,588.5669,2914,579.5669,2910,583.5669,2906,579.5669,2910,588.5669" style="stroke:#444444;stroke-width:1.2;"/></g><!--link DeviceApplicationService to DeviceRepository--><g class="link" data-entity-1="ent0030" data-entity-2="ent0031" data-link-type="dependency" data-source-line="234" id="lnk58"><path codeLine="234" d="M3624,492.9369 C3624,519.4269 3624,556.2569 3624,582.5669" fill="none" id="DeviceApplicationService-to-DeviceRepository" style="stroke:#444444;stroke-width:1.2;stroke-dasharray:7,7;"/><polygon fill="#444444" points="3624,588.5669,3628,579.5669,3624,583.5669,3620,579.5669,3624,588.5669" style="stroke:#444444;stroke-width:1.2;"/></g><!--link AnalyticsApplicationService to ReportEngineRepository--><g class="link" data-entity-1="ent0036" data-entity-2="ent0037" data-link-type="dependency" data-source-line="235" id="lnk59"><path codeLine="235" d="M4939,317.4169 C4939,350.6069 4939,405.0269 4939,438.1669" fill="none" id="AnalyticsApplicationService-to-ReportEngineRepository" style="stroke:#444444;stroke-width:1.2;stroke-dasharray:7,7;"/><polygon fill="#444444" points="4939,444.1669,4943,435.1669,4939,439.1669,4935,435.1669,4939,444.1669" style="stroke:#444444;stroke-width:1.2;"/></g><!--link PaymentApplicationService to OrderRepository--><g class="link" data-entity-1="ent0043" data-entity-2="ent0044" data-link-type="dependency" data-source-line="236" id="lnk60"><path codeLine="236" d="M4355,492.9369 C4355,519.4269 4355,556.2569 4355,582.5669" fill="none" id="PaymentApplicationService-to-OrderRepository" style="stroke:#444444;stroke-width:1.2;stroke-dasharray:7,7;"/><polygon fill="#444444" points="4355,588.5669,4359,579.5669,4355,583.5669,4351,579.5669,4355,588.5669" style="stroke:#444444;stroke-width:1.2;"/></g><!--link AuthController to AuthApplicationService--><g class="link" data-entity-1="ent0018" data-entity-2="ent0016" data-link-type="dependency" data-source-line="238" id="lnk61"><path codeLine="238" d="M1137.54,325.4269 C1138.09,356.7669 1138.8048,398.6378 1139.3548,429.9978" fill="none" id="AuthController-to-AuthApplicationService" style="stroke:#444444;stroke-width:1.2;stroke-dasharray:7,7;"/><polygon fill="#444444" points="1139.46,435.9969,1143.3016,426.9281,1139.3723,430.9976,1135.3028,427.0684,1139.46,435.9969" style="stroke:#444444;stroke-width:1.2;"/></g><!--link MonitoringController to MonitoringApplicationService--><g class="link" data-entity-1="ent0025" data-entity-2="ent0023" data-link-type="dependency" data-source-line="239" id="lnk62"><path codeLine="239" d="M2937.68,317.4169 C2931.56,350.6069 2921.4979,405.1263 2915.3879,438.2663" fill="none" id="MonitoringController-to-MonitoringApplicationService" style="stroke:#444444;stroke-width:1.2;stroke-dasharray:7,7;"/><polygon fill="#444444" points="2914.3,444.1669,2919.8655,436.0413,2915.2066,439.2497,2911.9981,434.5908,2914.3,444.1669" style="stroke:#444444;stroke-width:1.2;"/></g><!--link DeviceController to DeviceApplicationService--><g class="link" data-entity-1="ent0032" data-entity-2="ent0030" data-link-type="dependency" data-source-line="240" id="lnk63"><path codeLine="240" d="M3651.68,317.4169 C3645.56,350.6069 3635.4979,405.1263 3629.3879,438.2663" fill="none" id="DeviceController-to-DeviceApplicationService" style="stroke:#444444;stroke-width:1.2;stroke-dasharray:7,7;"/><polygon fill="#444444" points="3628.3,444.1669,3633.8655,436.0413,3629.2066,439.2497,3625.9981,434.5908,3628.3,444.1669" style="stroke:#444444;stroke-width:1.2;"/></g><!--link AnalyticsController to AnalyticsApplicationService--><g class="link" data-entity-1="ent0038" data-entity-2="ent0036" data-link-type="dependency" data-source-line="241" id="lnk64"><path codeLine="241" d="M4966.48,150.9369 C4960.4,182.1569 4950.7859,231.4973 4944.6959,262.7973" fill="none" id="AnalyticsController-to-AnalyticsApplicationService" style="stroke:#444444;stroke-width:1.2;stroke-dasharray:7,7;"/><polygon fill="#444444" points="4943.55,268.6869,4949.1953,260.6165,4944.5049,263.7789,4941.3425,259.0886,4943.55,268.6869" style="stroke:#444444;stroke-width:1.2;"/></g><!--link PaymentController to PaymentApplicationService--><g class="link" data-entity-1="ent0045" data-entity-2="ent0043" data-link-type="dependency" data-source-line="242" id="lnk65"><path codeLine="242" d="M4382.68,317.4169 C4376.56,350.6069 4366.4979,405.1263 4360.3879,438.2663" fill="none" id="PaymentController-to-PaymentApplicationService" style="stroke:#444444;stroke-width:1.2;stroke-dasharray:7,7;"/><polygon fill="#444444" points="4359.3,444.1669,4364.8655,436.0413,4360.2066,439.2497,4356.9981,434.5908,4359.3,444.1669" style="stroke:#444444;stroke-width:1.2;"/></g><?plantuml-src hLRVRwGs47xdhx3k7fhebAXtxSDfbKObG2uq6pO2Dj8zdRpWi6x0HiPSIjlBtzx1iE05TaEaxjColpoUR-ORIofJWgvmz4HOZ2oUvIcH15afBWfaKvm8dA4pz42Of7yXyzurZEA9iXpNygYsCgKKT5DAuaQS1VHlWduUcbnp9fNcuo-JAbb13XkUnaDjdLSYUCbYYwTSeFVNwZSouo8ceZNvLVs69ZS4Wyaedcqvdwy_QyPO2FvyA99IXbiQFJ42vVbu_iamVaA_7Vg1BhWnVST6juxlESkZjaOEkU64e7V15WiItnB1IFeE_MCOwW9eNH3XnkZYuZjEIuBuvayIoSjBC43mEqDAl401eC4I9VlG-fpigKvRNKBaGoq_EUsSVXW6OMMct7mEc3IndI1SswxfXOxwjDUEj_fcEzyiCp1hdoO_ZyTaVdwTcyiAIMKfAMTlyluni_HNfdNhUFQRQj-EWoe-tXHIu4WsROJCCgOIRrBYm438gitlFQBn0gtNhjr-He9WIM9JBj2IHpYruIka6UdlRURK9qNEMK5UmfSspWTKb544lRM0SG00C6l56SWWmG6yCPPuWS8-w1_FSYrfsaLB22EYFfh3VKvAW9NXhE-4CHftd96gAphEO5JW2bSqiKb4CvosYgWKWh2e6WSmgV1Xr43MHOdufmMoUGb5QoMIP7cTLod8GBCjCme5hZhn7AHTysucl60vc2ZekDyRABLcAzNOBDhnQOKampJT0-0C2S1eqOrBNuK0u8A6dWnUD3fNRvZHaNqzIxarypob4Qv7923YEur81t3A4yhs9vWoISGZ1YEL5ybvGIKNLUVpI5byLJdrTKxsBdNQ7Bz_k0K43TTCeLIZG_KURaAyp0BiRkMvuSftlIypSOEshEy01sZm1OGLNDIqirTd-6ycYI09zBtFkKuYJ57KegMg7HuI6h5eX87wlrS0dgd2-sL7Xz2_Mq6ABUmhlKqLS_P1McFJ2js7XZTTJ_kmV3TqBNEvDthj7STuwwZsr-wn7SVeOPk1X-qyk9Op4mkRr1bfE3I2_mM39jIIFfAeYj8H78rwzGoaLcnfVcXUTs1CHckTVEUB6uGER0WTfi59nu5eRCOWDF8t0M1wvl8hz4Cm4mEJuRIID2eq6Ef4X7GOpEPiC8JowQX8xqMvJQicPCzS4TS8kn-INJB7owNdDovQ5-HDTRitlzuvNZYpQlUuok0TgzLiLRyRvnPBFJ87jBtRa6flQlnVRef8qBmknMjTgdBOwyrxUA_KtAXuOkLTk_wTeu7JNkDujLNKSPbRtpSLsVLk760hqtkD8ePleuj_pywQZJAfQPVa8UMEvQRrpP1DwzJTN-UykioEPxdEArEddWddvvSxuFQ-rTutj5LKArfkQubHapJzLWkQXZ4EhFSkUW_WiVMWx2VtmY4UKnuZ0ZiooShXm0WVR4ZbDEh4mQkYjfakWp6rpdRLExmhX_ohtNN2Ue9ucfIEiDfeYfJ7mJBy1m00?></g></svg>